<svg width="678" height="562" viewBox="0 0 678 562" fill="none" xmlns="http://www.w3.org/2000/svg">
<path opacity="0.0832124" d="M337.454 436C510.595 436 652 409.256 652 263.648C652 118.039 511.641 0 338.5 0C165.359 0 25 118.039 25 263.648C25 409.256 164.313 436 337.454 436Z" fill="#8D8D8D"/>
<path opacity="0.1" d="M300.5 346.413C379.753 346.413 444 340.276 444 332.707C444 325.137 379.753 319 300.5 319C221.247 319 157 325.137 157 332.707C157 340.276 221.247 346.413 300.5 346.413Z" fill="#0064AB"/>
<path fill-rule="evenodd" clip-rule="evenodd" d="M359 229.682L351.138 225L313 288.318L320.862 293L359 229.682Z" fill="#49454E"/>
<path fill-rule="evenodd" clip-rule="evenodd" d="M471 288.789V301.912C471 303.105 470.093 304 468.883 304H265V287H468.883C470.093 287 471 287.895 471 288.789Z" fill="#49454E"/>
<path fill-rule="evenodd" clip-rule="evenodd" d="M180.977 331H258.327C261.967 331 265 327.967 265 324.328V216.672C265 213.033 261.967 210 258.327 210H187.953C184.617 210 181.583 212.426 181.28 215.762L174 268.832C174 269.135 174 269.439 174 269.742V324.328C174 327.967 177.033 331 180.977 331Z" fill="#0064AB"/>
<path fill-rule="evenodd" clip-rule="evenodd" d="M232 260H182L187.758 216.611C187.758 216.306 188.061 216 188.667 216H232V260Z" fill="#5D5760"/>
<path fill-rule="evenodd" clip-rule="evenodd" d="M195 216H232V260H221.772L195 216Z" fill="#6E6971"/>
<path fill-rule="evenodd" clip-rule="evenodd" d="M236 216H258.092C258.697 216 259 216.303 259 216.91V260H236V216Z" fill="#5D5760"/>
<path fill-rule="evenodd" clip-rule="evenodd" d="M240 216H258.095C258.698 216 259 216.303 259 216.91V260H254.778L240 216Z" fill="#6E6971"/>
<path fill-rule="evenodd" clip-rule="evenodd" d="M430 291C413.432 291 400 304.432 400 321C400 337.568 413.432 351 430 351C446.568 351 460 337.568 460 321C460 304.432 446.568 291 430 291Z" fill="#262626"/>
<path fill-rule="evenodd" clip-rule="evenodd" d="M430 304C420.611 304 413 311.611 413 321C413 330.389 420.611 338 430 338C439.389 338 447 330.389 447 321C447 311.611 439.389 304 430 304Z" fill="#A6ACAE"/>
<path fill-rule="evenodd" clip-rule="evenodd" d="M366 291C349.432 291 336 304.432 336 321C336 337.568 349.432 351 366 351C382.568 351 396 337.568 396 321C396 304.432 382.568 291 366 291Z" fill="#262626"/>
<path fill-rule="evenodd" clip-rule="evenodd" d="M366 304C356.611 304 349 311.611 349 321C349 330.389 356.611 338 366 338C375.389 338 383 330.389 383 321C383 311.611 375.389 304 366 304Z" fill="#A6ACAE"/>
<path fill-rule="evenodd" clip-rule="evenodd" d="M238 291C221.432 291 208 304.432 208 321C208 337.568 221.432 351 238 351C254.568 351 268 337.568 268 321C268 304.432 254.568 291 238 291Z" fill="#262626"/>
<path fill-rule="evenodd" clip-rule="evenodd" d="M238 304C228.611 304 221 311.611 221 321C221 330.389 228.611 338 238 338C247.389 338 255 330.389 255 321C255 311.611 247.389 304 238 304Z" fill="#A6ACAE"/>
<path fill-rule="evenodd" clip-rule="evenodd" d="M190 331H165V304H190V331Z" fill="#2F424F"/>
<path fill-rule="evenodd" clip-rule="evenodd" d="M277.592 132.443L299.057 139.089C303.29 140.297 305.708 144.829 304.197 149.059L289.08 196.792C288.476 198.906 288.778 201.323 289.685 203.136L301.173 223.377C302.08 225.19 303.894 226.398 305.708 227.002L469.267 278.663C473.499 279.871 478.034 277.756 479.244 273.527L484.685 256.911C485.29 254.796 484.988 252.682 484.081 250.869L473.802 231.232C472.895 229.721 471.685 228.211 469.871 227.607L357.104 178.363C355.592 177.759 354.685 176.852 353.778 175.644L323.546 132.141C322.639 130.63 321.127 129.724 319.313 129.119L282.429 117.337C278.197 116.129 273.662 118.244 272.452 122.473C270.941 126.4 273.359 130.932 277.592 132.443Z" fill="#0064AB"/>
<path fill-rule="evenodd" clip-rule="evenodd" d="M432 210.73L415.946 262L410 259.876L426.054 208L432 210.73Z" fill="#0881D8"/>
<path fill-rule="evenodd" clip-rule="evenodd" d="M372 184.7L353.627 242L347 239.9L365.373 182L372 184.7Z" fill="#0881D8"/>
<path fill-rule="evenodd" clip-rule="evenodd" d="M317.295 128L319.124 128.608C320.952 129.215 322.171 130.126 323.39 131.645L324 132.253L297.181 217L292 208.191L317.295 128Z" fill="#0881D8"/>
<path fill-rule="evenodd" clip-rule="evenodd" d="M465 224.711L450 272L444 270.193L459.3 222L465 224.711Z" fill="#0881D8"/>
<path fill-rule="evenodd" clip-rule="evenodd" d="M403 197.729L385.769 252L379 249.878L396.846 195L403 197.729Z" fill="#0881D8"/>
<path fill-rule="evenodd" clip-rule="evenodd" d="M340.484 156L345 162.635L323.022 232L317 229.889L340.484 156Z" fill="#0881D8"/>
<path opacity="0.1" d="M113 441.519C175.408 441.519 226 433.684 226 424.019C226 414.354 175.408 406.519 113 406.519C50.5918 406.519 0 414.354 0 424.019C0 433.684 50.5918 441.519 113 441.519Z" fill="#0064AB"/>
<path opacity="0.1" d="M602 503C626.301 503 646 498.971 646 494C646 489.029 626.301 485 602 485C577.699 485 558 489.029 558 494C558 498.971 577.699 503 602 503Z" fill="#0064AB"/>
<path opacity="0.1" d="M338.5 485C404.498 485 458 479.627 458 473C458 466.373 404.498 461 338.5 461C272.502 461 219 466.373 219 473C219 479.627 272.502 485 338.5 485Z" fill="#0064AB"/>
<path opacity="0.1" d="M529 434.519C611.29 434.519 678 423.997 678 411.019C678 398.04 611.29 387.519 529 387.519C446.71 387.519 380 398.04 380 411.019C380 423.997 446.71 434.519 529 434.519Z" fill="#0064AB"/>
<path d="M30.5817 370.061C23.7754 383.259 24.5994 399.083 32.7398 411.508C34.0517 413.47 35.2587 414.882 36.223 415.255C40.8475 417.066 50.1096 421.519 50.1096 421.519L72.4122 412.783C72.4122 412.783 76.0331 393.691 79.4572 377.299C81.7924 366.118 84.0489 356.199 84.9738 354.46C87.2828 350.177 84.9738 303.551 84.9738 303.551C84.9738 303.551 62.6712 302.061 56.538 319.198L53.8551 324.429L30.5817 370.061Z" fill="#A8A8A8"/>
<path opacity="0.1" d="M60.5407 375.062C73.9092 390.52 79.5489 377.15 79.5489 377.15C81.8514 365.992 84.0763 356.093 84.9882 354.357C87.2648 350.083 84.9882 303.551 84.9882 303.551C84.9882 303.551 62.9984 302.063 56.9512 319.166L54.306 324.386C52.6115 338.07 50.9364 363.936 60.5407 375.062Z" fill="white"/>
<path d="M63 418.519L141.919 409.442L156 317.182L145.352 293.22C140.854 283.015 134.625 273.657 126.938 265.557C121.578 259.932 115.1 254.523 108.287 251.805C107.356 251.431 106.405 251.108 105.439 250.836C103.187 250.154 100.743 250.585 98.8623 251.995C89.1289 258.864 85.6499 288.072 84.5253 302.133C84.0626 307.91 83.2788 313.658 82.1774 319.349L63 418.519Z" fill="#A8A8A8"/>
<path opacity="0.1" d="M115.671 316.224L99.2754 356.519C107.866 350.242 120.596 316.06 120.596 316.06L132 355.031L122.911 313.957C124.241 305.038 124.628 296.003 124.065 287.002C123.343 276.69 113.657 260.139 108.398 251.805C107.469 251.431 106.521 251.108 105.558 250.836C103.312 250.154 100.875 250.585 99 251.995C103.132 260.284 113.46 281.007 116.608 287.166C120.602 294.924 115.671 316.224 115.671 316.224Z" fill="white"/>
<path d="M129 421.519H171.964C175.536 421.52 178.951 420.063 181.412 417.488C183.873 414.914 185.164 411.448 184.983 407.9C184.033 389.575 181.625 356.903 175.897 336.163C172.802 324.973 169.206 319.099 165.906 316.204C164.359 314.719 162.362 313.785 160.225 313.546C158.604 313.407 156.982 313.799 155.606 314.662C147.628 322.269 138.311 362.298 138.311 362.298L129 421.519Z" fill="#A8A8A8"/>
<path opacity="0.1" d="M168.403 386.022C170.169 390.854 170.867 396.426 168.403 401.856L158.841 406.519C158.841 406.519 133.14 395.77 136.263 373.739C136.263 373.739 137.107 369.187 145.957 369.538C156.138 370.023 165.009 376.538 168.403 386.022Z" fill="white"/>
<path opacity="0.1" d="M158.376 328.433C158.073 320.694 162.413 318.01 166 317.157C164.422 315.683 162.385 314.755 160.206 314.519C157.709 316.541 155.94 319.278 155.152 322.336L146 365.519C146 365.519 158.887 341.403 158.376 328.433Z" fill="white"/>
<path d="M118.294 362.519L139.349 391.315L143 415.083L129.468 421.763L109.96 426.073C108.082 426.49 106.15 426.615 104.233 426.445L51 421.763L58.2427 404.975L83.2558 369.865L118.294 362.519Z" fill="#A8A8A8"/>
<path opacity="0.1" d="M109.833 352.53C109.833 352.53 124.175 353.528 118.791 378.522C113.406 403.515 58 405.519 58 405.519C58 405.519 69.7735 384.36 87.8836 369.199C89.9175 367.5 91.8798 365.728 93.7508 363.837C97.9165 359.612 105.883 352.186 109.833 352.53Z" fill="white"/>
<path opacity="0.1" d="M123 371.519C123 371.519 142.737 389.243 140.876 416.519L123 371.519Z" fill="black"/>
<path opacity="0.1" d="M156 315.519C156 315.519 135.32 342.698 133 384.519L156 315.519Z" fill="black"/>
<path opacity="0.1" d="M85.0154 303.519C85.0154 303.519 95.0477 348.565 70 382.519L85.0154 303.519Z" fill="black"/>
<path d="M163 180.519C162.333 180.189 161.667 179.839 161 179.519L162.387 179.679C162.618 179.911 162.825 180.194 163 180.519Z" fill="#FBBEBE"/>
<path opacity="0.1" d="M185.488 204.952C185.958 204.952 185.788 204.952 185.558 205.032C185.328 205.112 184.948 205.112 185.488 204.952Z" fill="black"/>
<path d="M456.325 346.635C456.325 346.635 440.995 366.869 428.276 367.034C415.556 367.2 408.089 375.557 414.129 380.78C420.168 386.002 485.98 377.797 485.98 377.797C485.98 377.797 486.601 352.931 480.899 349.3C475.196 345.668 456.325 346.635 456.325 346.635Z" fill="#444176"/>
<path d="M620.433 371.356C620.433 371.356 622.768 387.204 615.554 398.011C608.34 408.819 628.588 412.988 628.588 412.988C628.588 412.988 643.299 417.071 644.371 402.586C645.443 388.102 645.094 377.025 643.713 375.845C642.332 374.665 641.181 366.519 641.181 366.519L620.433 371.356Z" fill="#444176"/>
<path d="M390 400.439C390 400.439 389.469 349.209 440.231 328.385L452.018 305.99L457.672 292.234C461.828 282.122 470.665 274.674 481.345 272.281L490.488 270.231L493.315 258.336C496.394 245.34 506.916 235.417 520.084 233.091C525.644 232.06 531.286 231.534 536.941 231.519C542.03 231.595 546.708 234.329 549.266 238.724C549.266 238.724 597.358 238.193 599.49 264.342C599.49 264.342 604.305 288.349 611.251 292.62C611.251 292.62 623.005 289.954 634.759 307.031L647.583 350.788C647.583 350.788 681.245 382.269 671.091 411.051C671.091 411.051 657.199 430.794 586.667 417.451C586.667 417.451 511.327 440.377 471.224 408.935C471.217 408.974 404.431 421.78 390 400.439Z" fill="#A8A8A8"/>
<path opacity="0.1" d="M423 392.519C423 392.519 433.968 377.649 433.416 367.024C432.864 356.398 436 330.519 436 330.519" stroke="black"/>
<path opacity="0.1" d="M463 352.519C463 352.519 473.545 332.851 472.49 322.221C472.49 322.221 483.565 301.992 492 303.611" stroke="black"/>
<path opacity="0.1" d="M521 296.519C521 296.519 550.393 285.962 552 277.519" stroke="black"/>
<path opacity="0.1" d="M532 321.066C532 321.066 563.237 307.245 563.237 303.519H578.846C578.846 303.519 601.468 332.761 598.778 345.519" stroke="black"/>
<path opacity="0.1" d="M568 342.756C568 342.756 538.157 340.619 527.494 349.168C516.831 357.717 497.651 361.986 497.651 361.986C497.651 361.986 486.458 386.021 482.193 390.289C477.928 394.557 471 409.519 471 409.519" stroke="black"/>
<path opacity="0.1" d="M568 371.519C568 371.519 571.172 382.731 575.411 389.144C579.649 395.556 586 418.519 586 418.519" stroke="black"/>
<path opacity="0.1" d="M618 403.519C618 403.519 624.918 422.335 631 422.519" stroke="black"/>
<path opacity="0.1" d="M574 322.519C574 322.519 591.667 327.243 599.053 338.691C606.44 350.138 629 360.519 629 360.519" stroke="black"/>
<path opacity="0.1" d="M582 265.519C582 265.519 582 289.873 588.854 289.873C595.707 289.873 611 292.519 611 292.519" stroke="black"/>
<path opacity="0.1" d="M548 236.519C548 236.519 546.2 278.618 537 289.519" stroke="black"/>
<g opacity="0.05">
<path d="M646.108 350.552L633.264 306.693C621.49 289.577 609.717 292.249 609.717 292.249C602.76 287.968 597.944 263.898 597.944 263.898C595.802 237.688 547.631 238.227 547.631 238.227C545.064 233.814 540.367 231.072 535.26 231.004C532.987 231.004 530.661 231.077 528.336 231.267C529.65 231.398 530.909 231.584 532.113 231.825L535.858 238.246C535.858 238.246 584.022 237.708 586.164 263.918C586.164 263.918 590.986 287.988 597.944 292.269C597.944 292.269 609.717 289.59 621.49 306.713L634.335 350.572C634.335 350.572 668.051 382.126 657.881 410.976C657.881 410.976 651.016 420.739 622.456 421.921C660.963 423.332 669.655 410.976 669.655 410.976C679.825 382.106 646.108 350.552 646.108 350.552Z" fill="black"/>
<path d="M457.715 408.848C446.386 410.886 434.929 412.138 423.427 412.597C436.836 413.109 450.784 411.658 459.772 410.424C459.075 409.892 458.392 409.38 457.715 408.848Z" fill="black"/>
<path d="M573.32 417.41C556.843 422.028 539.883 424.707 522.784 425.394C547.454 426.287 570.823 421.146 580.455 418.677C578.129 418.29 575.77 417.85 573.32 417.41Z" fill="black"/>
</g>
<path fill-rule="evenodd" clip-rule="evenodd" d="M426.273 466C430.058 465.98 433.555 463.98 435.488 460.73C437.421 457.481 437.506 453.458 435.713 450.13L339.51 271.66C337.632 268.174 333.988 266 330.024 266C326.059 266 322.415 268.174 320.537 271.66L224.287 450.13C222.49 453.465 222.58 457.498 224.524 460.751C226.468 464.003 229.981 465.996 233.774 466H426.273ZM342.104 434.116H317.896V409.961H342.104V434.116ZM317.896 393.536H342.104V344.261H317.896V393.536Z" fill="#F9CB5F"/>
<path d="M102.057 426.059C99.8527 422.46 96.5377 419.165 97.0537 415.082C103.121 415.776 108.875 414.303 114.434 411.74C119.993 409.177 125.153 405.85 130.36 402.586C132.408 401.301 134.449 400.039 136.482 398.87C139.703 397.031 142.901 394.975 146.176 393.175C150.868 390.604 155.652 388.501 160.922 388.096C161.876 388.021 162.834 387.998 163.791 388.025C170.28 388.15 177.004 389.887 182.712 386.989L183.063 386.802C186.3 385.034 188.654 382.027 191.429 379.588C193.425 377.869 195.597 376.364 197.911 375.101C202.125 372.764 206.691 370.894 210.998 368.689C212.101 368.123 213.148 367.455 214.126 366.695L214.861 366.11L215.025 365.97C215.205 365.822 215.385 365.674 215.557 365.518L215.893 365.222L216.237 364.911L216.503 364.661L216.933 364.256L216.98 364.202L217.66 363.532L217.933 363.259L218.41 362.768L218.692 362.488C219.169 361.997 219.646 361.498 220.13 361.015C220.615 360.532 221.272 359.878 221.858 359.34L222.421 358.842L222.585 358.702L223.039 358.328L223.25 358.148L223.696 357.806L223.914 357.634C224.133 357.471 224.36 357.315 224.587 357.159C224.795 357.015 225.015 356.887 225.244 356.777L223.782 353.248L227.988 351.519L286 491.789L281.786 493.519L248.605 413.275L248.37 413.509C240.684 421.067 231.269 426.649 220.936 429.776H220.873C215.095 431.513 208.63 432.744 203.767 435.969C202.042 437.086 200.544 438.516 199.349 440.184C198.208 441.804 197.41 443.651 196.222 445.209C195.995 445.497 195.745 445.778 195.495 446.042C194.073 447.447 192.5 448.691 190.804 449.751L190.061 450.257C185.024 453.789 179.776 457.012 174.346 459.91C171.213 461.535 167.946 462.89 164.581 463.961C162.134 464.74 159.608 465.309 157.161 466.08C155.515 466.577 153.917 467.218 152.384 467.996C148.241 470.154 145.058 473.536 142.048 477.143C139.414 480.306 136.912 483.656 134.019 486.538C132.205 488.33 129.445 490.028 127.256 488.977L126.81 488.72C126.881 488.603 126.936 488.486 126.998 488.361C128.726 484.754 126.599 480.298 123.738 477.408C123.441 477.104 123.136 476.808 122.823 476.527C122.51 476.247 121.947 475.748 121.502 475.359C119.055 473.263 116.451 471.315 114.755 468.612C113.46 466.341 112.581 463.859 112.159 461.281C111.377 457.611 110.853 453.833 108.852 450.709C107.538 448.644 105.584 446.884 104.161 444.905C103.261 443.734 102.67 442.357 102.441 440.901C102.12 438.369 103.301 435.891 103.746 433.367C103.879 432.679 103.934 431.979 103.91 431.279C103.747 429.411 103.109 427.615 102.057 426.059Z" fill="url(#paint0_linear)"/>
<path d="M283 490.813L278.871 492.519L222 354.224L226.129 352.519L283 490.813Z" fill="#D6D8E1"/>
<g filter="url(#filter0_d)">
<path d="M110.609 450.457C112.567 453.544 113.09 457.264 113.847 460.882C114.267 463.425 115.131 465.875 116.399 468.118C118.068 470.783 120.62 472.706 123.015 474.769C123.452 475.152 123.889 475.55 124.311 475.925C124.615 476.199 124.919 476.496 125.208 476.785C128.017 479.637 130.1 484.037 128.407 487.593C128.355 487.714 128.295 487.831 128.228 487.944C128.365 488.037 128.508 488.121 128.657 488.194C130.81 489.241 133.518 487.569 135.297 485.795C138.137 482.951 140.595 479.653 143.178 476.535C146.127 472.971 149.256 469.634 153.321 467.509C154.822 466.739 156.389 466.106 158.003 465.618C160.398 464.836 162.88 464.281 165.283 463.531C168.584 462.474 171.789 461.138 174.865 459.538C180.202 456.677 185.361 453.496 190.314 450.012L191.048 449.511C192.711 448.468 194.255 447.244 195.651 445.862C195.901 445.596 196.143 445.323 196.369 445.034C197.571 443.471 198.359 441.681 199.49 440.079C200.664 438.433 202.135 437.023 203.829 435.922C208.604 432.741 214.94 431.522 220.613 429.811H220.675C230.812 426.722 240.049 421.217 247.595 413.767C248.22 413.244 248.687 412.557 248.944 411.782C249.186 410.68 248.593 409.586 248.024 408.617C247.361 407.476 246.713 406.335 246.073 405.179C243.196 399.934 240.627 394.524 238.38 388.979C237.888 387.76 237.412 386.548 236.952 385.322C235.771 382.196 234.694 379.026 233.721 375.811C233.401 374.748 233.089 373.678 232.793 372.607C232.738 372.404 232.676 372.185 232.621 371.951C231.326 366.738 229.594 354.539 224.256 358.189C222.669 359.326 221.193 360.61 219.848 362.026C218.81 363.081 217.796 364.167 216.727 365.214C215.856 366.072 214.936 366.878 213.972 367.629C212.994 368.379 211.949 369.039 210.851 369.598C206.614 371.771 202.136 373.592 198.008 375.92C195.735 377.164 193.601 378.647 191.641 380.344C188.918 382.751 186.608 385.72 183.432 387.463L183.089 387.65C177.487 390.503 170.893 388.791 164.518 388.666C163.581 388.643 162.644 388.666 161.709 388.737C156.536 389.127 151.808 391.206 147.235 393.746C144.02 395.528 140.884 397.544 137.724 399.365C135.726 400.513 133.729 401.756 131.715 403.03C126.612 406.249 121.439 409.625 116.11 412.063C110.648 414.549 105.007 416.033 99.053 415.353C98.5458 419.378 101.792 422.629 103.961 426.177C105.003 427.702 105.634 429.47 105.795 431.311C105.823 432 105.774 432.689 105.646 433.366C105.209 435.859 104.086 438.297 104.367 440.806C104.588 442.236 105.165 443.588 106.044 444.737C107.402 446.683 109.314 448.425 110.609 450.457Z" fill="white"/>
<path d="M110.609 450.457C112.567 453.544 113.09 457.264 113.847 460.882C114.267 463.425 115.131 465.875 116.399 468.118C118.068 470.783 120.62 472.706 123.015 474.769C123.452 475.152 123.889 475.55 124.311 475.925C124.615 476.199 124.919 476.496 125.208 476.785C128.017 479.637 130.1 484.037 128.407 487.593C128.355 487.714 128.295 487.831 128.228 487.944C128.365 488.037 128.508 488.121 128.657 488.194C130.81 489.241 133.518 487.569 135.297 485.795C138.137 482.951 140.595 479.653 143.178 476.535C146.127 472.971 149.256 469.634 153.321 467.509C154.822 466.739 156.389 466.106 158.003 465.618C160.398 464.836 162.88 464.281 165.283 463.531C168.584 462.474 171.789 461.138 174.865 459.538C180.202 456.677 185.361 453.496 190.314 450.012L191.048 449.511C192.711 448.468 194.255 447.244 195.651 445.862C195.901 445.596 196.143 445.323 196.369 445.034C197.571 443.471 198.359 441.681 199.49 440.079C200.664 438.433 202.135 437.023 203.829 435.922C208.604 432.741 214.94 431.522 220.613 429.811H220.675C230.812 426.722 240.049 421.217 247.595 413.767C248.22 413.244 248.687 412.557 248.944 411.782C249.186 410.68 248.593 409.586 248.024 408.617C247.361 407.476 246.713 406.335 246.073 405.179C243.196 399.934 240.627 394.524 238.38 388.979C237.888 387.76 237.412 386.548 236.952 385.322C235.771 382.196 234.694 379.026 233.721 375.811C233.401 374.748 233.089 373.678 232.793 372.607C232.738 372.404 232.676 372.185 232.621 371.951C231.326 366.738 229.594 354.539 224.256 358.189C222.669 359.326 221.193 360.61 219.848 362.026C218.81 363.081 217.796 364.167 216.727 365.214C215.856 366.072 214.936 366.878 213.972 367.629C212.994 368.379 211.949 369.039 210.851 369.598C206.614 371.771 202.136 373.592 198.008 375.92C195.735 377.164 193.601 378.647 191.641 380.344C188.918 382.751 186.608 385.72 183.432 387.463L183.089 387.65C177.487 390.503 170.893 388.791 164.518 388.666C163.581 388.643 162.644 388.666 161.709 388.737C156.536 389.127 151.808 391.206 147.235 393.746C144.02 395.528 140.884 397.544 137.724 399.365C135.726 400.513 133.729 401.756 131.715 403.03C126.612 406.249 121.439 409.625 116.11 412.063C110.648 414.549 105.007 416.033 99.053 415.353C98.5458 419.378 101.792 422.629 103.961 426.177C105.003 427.702 105.634 429.47 105.795 431.311C105.823 432 105.774 432.689 105.646 433.366C105.209 435.859 104.086 438.297 104.367 440.806C104.588 442.236 105.165 443.588 106.044 444.737C107.402 446.683 109.314 448.425 110.609 450.457Z" stroke="#DCDCDC"/>
</g>
<path d="M625 481.822C625 481.822 607.677 478.395 603.062 473.827C598.447 469.258 577.658 461.275 575.348 466.98C573.037 472.684 544.174 492.096 563.801 495.535C583.428 498.975 609.987 500.078 615.764 497.82C621.541 495.561 625 481.822 625 481.822Z" fill="#A8A8A8"/>
<path opacity="0.2" d="M563.797 493.505C583.432 496.868 609.987 497.972 615.763 495.745C620.155 494.035 623.214 485.822 624.422 482L625 482.121C625 482.121 621.534 495.585 615.763 497.831C609.993 500.078 583.432 498.954 563.797 495.585C558.132 494.615 556.51 492.331 557.121 489.447C557.607 491.348 559.583 492.797 563.797 493.505Z" fill="black"/>
<path opacity="0.1" d="M358.98 58.6688H354.865C356.457 58.6688 357.748 57.3998 357.748 55.8344C357.748 54.269 356.457 53 354.865 53H321.528C319.935 53 318.645 54.269 318.645 55.8344C318.645 57.3998 319.935 58.6688 321.528 58.6688H325.642C324.105 58.7409 322.897 59.9871 322.897 61.5C322.897 63.0129 324.105 64.2591 325.642 64.3312H319.883C318.291 64.3312 317 65.6002 317 67.1656C317 68.731 318.291 70 319.883 70H353.22C354.813 70 356.103 68.731 356.103 67.1656C356.103 65.6002 354.813 64.3312 353.22 64.3312H358.98C360.041 64.381 361.045 63.8525 361.591 62.956C362.136 62.0595 362.136 60.9405 361.591 60.044C361.045 59.1475 360.041 58.619 358.98 58.6688Z" fill="#0064AB"/>
<path opacity="0.1" d="M519.982 123.667H515.87C517.406 123.595 518.614 122.348 518.614 120.835C518.614 119.322 517.406 118.075 515.87 118.003H482.524C481.463 117.953 480.461 118.482 479.915 119.379C479.37 120.275 479.37 121.395 479.915 122.291C480.461 123.188 481.463 123.716 482.524 123.667H486.636C485.1 123.739 483.892 124.985 483.892 126.498C483.892 128.012 485.1 129.258 486.636 129.33H480.881C479.29 129.33 478 130.599 478 132.165C478 133.731 479.29 135 480.881 135H514.187C515.778 135 517.068 133.731 517.068 132.165C517.068 130.599 515.778 129.33 514.187 129.33H519.982C521.043 129.38 522.045 128.851 522.591 127.955C523.136 127.058 523.136 125.939 522.591 125.042C522.045 124.145 521.043 123.617 519.982 123.667Z" fill="#0064AB"/>
<path opacity="0.1" d="M170.993 157.667H166.878C167.94 157.716 168.943 157.188 169.489 156.291C170.035 155.395 170.035 154.275 169.489 153.379C168.943 152.482 167.94 151.953 166.878 152.003H133.534C132.473 151.953 131.469 152.482 130.923 153.379C130.377 154.275 130.377 155.395 130.923 156.291C131.469 157.188 132.473 157.716 133.534 157.667H137.649C136.587 157.617 135.584 158.145 135.038 159.042C134.492 159.939 134.492 161.058 135.038 161.955C135.584 162.851 136.587 163.38 137.649 163.33H131.883C130.291 163.33 129 164.599 129 166.165C129 167.731 130.291 169 131.883 169H165.22C166.813 169 168.103 167.731 168.103 166.165C168.103 164.599 166.813 163.33 165.22 163.33H170.98C172.041 163.38 173.045 162.851 173.591 161.955C174.136 161.058 174.136 159.939 173.591 159.042C173.045 158.145 172.041 157.617 170.98 157.667H170.993Z" fill="#0064AB"/>
<path fill-rule="evenodd" clip-rule="evenodd" d="M572.592 561.432C580.258 561.432 585.86 555.728 586.016 548.702L586.02 548.328C586.02 541.164 580.44 535.368 572.664 535.368C564.997 535.368 559.395 541.072 559.239 548.098L559.236 548.472C559.236 555.636 564.816 561.432 572.592 561.432ZM220.518 558.624C220.518 560.064 221.634 561.216 223.074 561.216C224.226 561.216 225.162 560.568 225.63 559.488L227.394 555.348H238.482L240.174 559.308C240.678 560.46 241.542 561.216 242.838 561.216C244.314 561.216 245.466 560.028 245.466 558.552C245.466 558.192 245.358 557.832 245.178 557.436L236.394 537.6C235.782 536.232 234.702 535.404 233.19 535.404H232.866C231.354 535.404 230.238 536.232 229.626 537.6L220.842 557.436C220.662 557.832 220.518 558.228 220.518 558.624ZM60.9573 558.444C60.9573 559.992 62.1813 561.216 63.7293 561.216C65.2773 561.216 66.5013 559.992 66.5013 558.444V538.356C66.5013 536.808 65.2773 535.584 63.7293 535.584C62.1813 535.584 60.9573 536.808 60.9573 538.356V558.444ZM75.9827 558.48C75.9827 559.992 77.2067 561.216 78.7187 561.216C80.2307 561.216 81.4547 559.992 81.4547 558.48V544.98L92.5427 559.524C93.2987 560.496 94.0907 561.144 95.4227 561.144H95.6027C97.1507 561.144 98.3747 559.92 98.3747 558.372V538.32C98.3747 536.808 97.1507 535.584 95.6387 535.584C94.1267 535.584 92.9027 536.808 92.9027 538.32V551.316L82.2107 537.276C81.4547 536.304 80.6627 535.656 79.3307 535.656H78.7547C77.2067 535.656 75.9827 536.88 75.9827 538.428V558.48ZM116.244 561.216C114.696 561.216 113.472 559.992 113.472 558.444V540.912H108.144C106.74 540.912 105.588 539.76 105.588 538.356C105.588 536.952 106.74 535.8 108.144 535.8H124.344C125.748 535.8 126.9 536.952 126.9 538.356C126.9 539.76 125.748 540.912 124.344 540.912H119.016V558.444C119.016 559.992 117.792 561.216 116.244 561.216ZM136.886 561H151.034C152.402 561 153.518 559.92 153.518 558.552C153.518 557.184 152.402 556.068 151.034 556.068H139.622V550.776H149.234C150.602 550.776 151.718 549.696 151.718 548.328C151.718 546.96 150.602 545.844 149.234 545.844H139.622V540.732H150.854C152.222 540.732 153.338 539.652 153.338 538.284C153.338 536.916 152.222 535.8 150.854 535.8H136.886C135.338 535.8 134.114 537.024 134.114 538.572V558.228C134.114 559.776 135.338 561 136.886 561ZM164.187 561.216C162.639 561.216 161.415 559.992 161.415 558.444V538.572C161.415 537.024 162.639 535.8 164.187 535.8H172.935C176.139 535.8 178.623 536.7 180.279 538.356C181.683 539.76 182.439 541.74 182.439 544.116L182.434 544.514C182.328 548.283 180.374 550.631 177.399 551.856L181.251 556.536C181.791 557.22 182.151 557.796 182.151 558.66C182.151 560.208 180.855 561.216 179.523 561.216C178.263 561.216 177.435 560.604 176.787 559.776L171.387 552.936H166.959V558.444C166.959 559.992 165.735 561.216 164.187 561.216ZM166.959 548.04V540.804H172.467C175.085 540.804 176.722 541.955 176.818 544.191L176.823 544.476C176.823 546.6 175.275 548.04 172.575 548.04H166.959ZM193.36 561.216C191.848 561.216 190.624 559.992 190.624 558.48V538.428C190.624 536.88 191.848 535.656 193.396 535.656H193.972C195.304 535.656 196.096 536.304 196.852 537.276L207.544 551.316V538.32C207.544 536.808 208.768 535.584 210.28 535.584C211.792 535.584 213.016 536.808 213.016 538.32V558.372C213.016 559.92 211.792 561.144 210.244 561.144H210.064C208.732 561.144 207.94 560.496 207.184 559.524L196.096 544.98V558.48C196.096 559.992 194.872 561.216 193.36 561.216ZM232.938 542.136L229.446 550.452H236.43L232.938 542.136ZM253.003 558.228C253.003 559.776 254.227 561 255.775 561H268.807C270.211 561 271.327 559.884 271.327 558.48C271.327 557.076 270.211 555.96 268.807 555.96H258.547V538.356C258.547 536.808 257.323 535.584 255.775 535.584C254.227 535.584 253.003 536.808 253.003 538.356V558.228ZM310.662 553.819C310.527 558.653 306.751 561.36 301.414 561.36C298.102 561.36 294.754 560.352 291.946 558.336C291.334 557.904 290.902 557.112 290.902 556.248C290.902 554.808 292.054 553.692 293.494 553.692C294.214 553.692 294.718 553.944 295.078 554.196C296.986 555.6 299.074 556.464 301.522 556.464C303.79 556.464 305.158 555.564 305.158 554.088L305.156 553.914C305.116 552.644 304.281 551.938 300.675 550.968L299.791 550.737C294.881 549.461 291.73 548.016 291.73 543.108L291.734 542.784C291.866 538.353 295.497 535.44 300.55 535.44C303.61 535.44 306.274 536.232 308.542 537.672L308.664 537.749C309.233 538.134 309.766 538.86 309.766 539.868C309.766 541.308 308.614 542.424 307.174 542.424C306.634 542.424 306.202 542.28 305.77 542.028C303.934 540.948 302.206 540.336 300.478 540.336C298.354 540.336 297.238 541.308 297.238 542.532L297.24 542.72C297.287 544.171 298.262 544.742 301.79 545.685L302.99 546C307.905 547.326 310.666 549.175 310.666 553.476L310.662 553.819ZM321.443 561H335.591C336.959 561 338.075 559.92 338.075 558.552C338.075 557.184 336.959 556.068 335.591 556.068H324.179V550.776H333.791C335.159 550.776 336.275 549.696 336.275 548.328C336.275 546.96 335.159 545.844 333.791 545.844H324.179V540.732H335.411C336.779 540.732 337.895 539.652 337.895 538.284C337.895 536.916 336.779 535.8 335.411 535.8H321.443C319.895 535.8 318.671 537.024 318.671 538.572V558.228C318.671 559.776 319.895 561 321.443 561ZM348.745 561.216C347.197 561.216 345.973 559.992 345.973 558.444V538.572C345.973 537.024 347.197 535.8 348.745 535.8H357.493C360.697 535.8 363.181 536.7 364.837 538.356C366.241 539.76 366.997 541.74 366.997 544.116L366.992 544.514C366.886 548.283 364.932 550.631 361.957 551.856L365.809 556.536C366.349 557.22 366.709 557.796 366.709 558.66C366.709 560.208 365.413 561.216 364.081 561.216C362.821 561.216 361.993 560.604 361.345 559.776L355.945 552.936H351.517V558.444C351.517 559.992 350.293 561.216 348.745 561.216ZM351.517 548.04V540.804H357.025C359.643 540.804 361.279 541.955 361.376 544.191L361.381 544.476C361.381 546.6 359.833 548.04 357.133 548.04H351.517ZM385.046 561.396H384.686C383.174 561.396 382.13 560.568 381.554 559.2L373.382 539.652C373.202 539.22 373.058 538.788 373.058 538.32C373.058 536.772 374.282 535.584 375.83 535.584C377.27 535.584 378.206 536.412 378.638 537.528L384.938 553.836L391.31 537.348C391.67 536.448 392.642 535.584 393.974 535.584C395.486 535.584 396.71 536.736 396.71 538.248C396.71 538.68 396.566 539.148 396.422 539.472L388.178 559.2C387.602 560.568 386.558 561.396 385.046 561.396ZM406.911 561H421.059C422.427 561 423.543 559.92 423.543 558.552C423.543 557.184 422.427 556.068 421.059 556.068H409.647V550.776H419.259C420.627 550.776 421.743 549.696 421.743 548.328C421.743 546.96 420.627 545.844 419.259 545.844H409.647V540.732H420.879C422.247 540.732 423.363 539.652 423.363 538.284C423.363 536.916 422.247 535.8 420.879 535.8H406.911C405.363 535.8 404.139 537.024 404.139 538.572V558.228C404.139 559.776 405.363 561 406.911 561ZM434.213 561.216C432.665 561.216 431.441 559.992 431.441 558.444V538.572C431.441 537.024 432.665 535.8 434.213 535.8H442.961C446.165 535.8 448.649 536.7 450.305 538.356C451.709 539.76 452.465 541.74 452.465 544.116L452.46 544.514C452.354 548.283 450.4 550.631 447.425 551.856L451.277 556.536C451.817 557.22 452.177 557.796 452.177 558.66C452.177 560.208 450.881 561.216 449.549 561.216C448.289 561.216 447.461 560.604 446.813 559.776L441.413 552.936H436.985V558.444C436.985 559.992 435.761 561.216 434.213 561.216ZM436.985 548.04V540.804H442.493C445.111 540.804 446.748 541.955 446.844 544.191L446.849 544.476C446.849 546.6 445.301 548.04 442.601 548.04H436.985ZM491.552 561H477.404C475.856 561 474.632 559.776 474.632 558.228V538.572C474.632 537.024 475.856 535.8 477.404 535.8H491.372C492.74 535.8 493.856 536.916 493.856 538.284C493.856 539.652 492.74 540.732 491.372 540.732H480.14V545.844H489.752C491.12 545.844 492.236 546.96 492.236 548.328C492.236 549.696 491.12 550.776 489.752 550.776H480.14V556.068H491.552C492.92 556.068 494.036 557.184 494.036 558.552C494.036 559.92 492.92 561 491.552 561ZM501.933 558.444C501.933 559.992 503.157 561.216 504.705 561.216C506.253 561.216 507.477 559.992 507.477 558.444V552.936H511.905L517.305 559.776C517.953 560.604 518.781 561.216 520.041 561.216C521.373 561.216 522.669 560.208 522.669 558.66C522.669 557.796 522.309 557.22 521.769 556.536L517.917 551.856C520.892 550.631 522.846 548.283 522.952 544.514L522.957 544.116C522.957 541.74 522.201 539.76 520.797 538.356C519.141 536.7 516.657 535.8 513.453 535.8H504.705C503.157 535.8 501.933 537.024 501.933 538.572V558.444ZM507.477 540.804V548.04H513.093C515.793 548.04 517.341 546.6 517.341 544.476L517.337 544.191C517.24 541.955 515.603 540.804 512.985 540.804H507.477ZM531.142 558.444C531.142 559.992 532.366 561.216 533.914 561.216C535.462 561.216 536.686 559.992 536.686 558.444V552.936H541.114L546.514 559.776C547.162 560.604 547.99 561.216 549.25 561.216C550.582 561.216 551.878 560.208 551.878 558.66C551.878 557.796 551.518 557.22 550.978 556.536L547.126 551.856C550.101 550.631 552.056 548.283 552.162 544.514L552.166 544.116C552.166 541.74 551.41 539.76 550.006 538.356C548.35 536.7 545.866 535.8 542.662 535.8H533.914C532.366 535.8 531.142 537.024 531.142 538.572V558.444ZM536.686 540.804V548.04H542.302C545.002 548.04 546.55 546.6 546.55 544.476L546.546 544.191C546.449 541.955 544.813 540.804 542.194 540.804H536.686ZM565.035 548.648C565.154 552.857 568.286 556.32 572.664 556.32C577.128 556.32 580.224 552.792 580.224 548.472L580.22 548.152C580.102 543.943 576.97 540.48 572.592 540.48C568.128 540.48 565.032 544.008 565.032 548.328L565.035 548.648ZM594.133 558.444C594.133 559.992 595.357 561.216 596.905 561.216C598.453 561.216 599.677 559.992 599.677 558.444V552.936H604.105L609.505 559.776C610.153 560.604 610.981 561.216 612.241 561.216C613.573 561.216 614.869 560.208 614.869 558.66C614.869 557.796 614.509 557.22 613.969 556.536L610.117 551.856C613.092 550.631 615.046 548.283 615.153 544.514L615.157 544.116C615.157 541.74 614.401 539.76 612.997 538.356C611.341 536.7 608.857 535.8 605.653 535.8H596.905C595.357 535.8 594.133 537.024 594.133 538.572V558.444ZM599.677 540.804V548.04H605.293C607.993 548.04 609.541 546.6 609.541 544.476L609.537 544.191C609.44 541.955 607.803 540.804 605.185 540.804H599.677Z" fill="#5A5A5A"/>
<defs>
<filter id="filter0_d" x="97.5" y="357.019" width="153" height="134" filterUnits="userSpaceOnUse" color-interpolation-filters="sRGB">
<feFlood flood-opacity="0" result="BackgroundImageFix"/>
<feColorMatrix in="SourceAlpha" type="matrix" values="0 0 0 0 0 0 0 0 0 0 0 0 0 0 0 0 0 0 127 0"/>
<feOffset dy="1"/>
<feGaussianBlur stdDeviation="0.5"/>
<feColorMatrix type="matrix" values="0 0 0 0 0.868405 0 0 0 0 0.868405 0 0 0 0 0.868405 0 0 0 0.5 0"/>
<feBlend mode="normal" in2="BackgroundImageFix" result="effect1_dropShadow"/>
<feBlend mode="normal" in="SourceGraphic" in2="effect1_dropShadow" result="shape"/>
</filter>
<linearGradient id="paint0_linear" x1="286.055" y1="351.463" x2="96.999" y2="351.463" gradientUnits="userSpaceOnUse">
<stop stop-color="#808080" stop-opacity="0.25"/>
<stop offset="0.54" stop-color="#808080" stop-opacity="0.12"/>
<stop offset="1" stop-color="#808080" stop-opacity="0.1"/>
</linearGradient>
</defs>
</svg>
