<svg xmlns="http://www.w3.org/2000/svg" width="18" height="18" viewBox="0 0 18 18">
    <g fill="#F7B500">
        <path stroke="#F7B500" stroke-width=".5" d="M9 0C4.025 0 0 4.026 0 9c0 4.975 4.026 9 9 9 4.975 0 9-4.026 9-9 0-4.975-4.026-9-9-9zm0 16.875c-4.353 0-7.875-3.522-7.875-7.875S4.647 1.125 9 1.125 16.875 4.647 16.875 9 13.353 16.875 9 16.875z"/>
        <path d="M9 4c-.552 0-1 .318-1 .71v4.58c0 .392.448.71 1 .71s1-.318 1-.71V4.71C10 4.319 9.552 4 9 4z"/>
        <circle cx="9" cy="12" r="1"/>
    </g>
</svg>
