<svg xmlns="http://www.w3.org/2000/svg" width="16" height="16" viewBox="0 0 16 16">
    <g fill="none" fill-rule="evenodd">
        <circle cx="8" cy="8" r="8" fill="#282560"/>
        <path fill="#FFF" d="M11.235 6.76l.06.046.056.063c.196.256.169.617-.073.843l-2.785 2.611-.006.005-.038.036.02-.022-.062.05c-.242.164-.57.165-.813 0l-.066-.052c-.008-.005-.015-.01-.021-.017l-2.785-2.61c-.245-.23-.271-.587-.074-.844l.055-.061.062-.048c.273-.184.658-.158.9.068l2.334 2.19 2.336-2.19c.245-.23.626-.254.9-.069z"/>
    </g>
</svg>
