<svg xmlns="http://www.w3.org/2000/svg" width="16" height="16" viewBox="0 0 16 16">
    <path fill="#6D7278" fill-rule="evenodd" d="M7.948.462C3.741.462.33 3.883.33 8.102c0 4.22 3.411 7.643 7.618 7.643 4.208 0 7.622-3.424 7.622-7.643 0-4.219-3.414-7.64-7.622-7.64zm2.374 12.15c-.498.19-.894.334-1.189.434a3.168 3.168 0 0 1-1.03.152c-.603 0-1.073-.144-1.405-.432a1.362 1.362 0 0 1-.498-1.088c0-.171.012-.345.036-.524.024-.18.064-.378.12-.603l.622-2.142c.056-.206.104-.4.14-.579.036-.187.055-.353.055-.505 0-.272-.059-.463-.175-.571-.116-.109-.335-.16-.662-.16-.16 0-.327.023-.496.07a9.26 9.26 0 0 0-.43.14l.163-.656c.407-.163.798-.3 1.17-.416a3.499 3.499 0 0 1 1.054-.175c.597 0 1.057.143 1.38.424.323.28.487.644.487 1.095 0 .094-.012.257-.032.49-.024.237-.064.45-.124.645l-.618 2.134c-.052.17-.096.369-.14.587a3.01 3.01 0 0 0-.06.497c0 .284.068.479.196.58.132.105.355.154.678.154.152 0 .32-.026.511-.077a2.99 2.99 0 0 0 .415-.135l-.168.66zm-1.472-8.7c-.25.246-.549.371-.899.371-.345 0-.647-.125-.897-.371a1.233 1.233 0 0 1-.374-.902c0-.35.127-.652.374-.903.25-.246.552-.371.897-.371.35 0 .649.125.899.371.246.25.37.552.37.903 0 .353-.124.655-.37.902z"/>
</svg>
