<svg width="700" height="562" viewBox="0 0 700 562" fill="none" xmlns="http://www.w3.org/2000/svg">
<path opacity="0.1" d="M406.701 86.2394C361.826 84.6862 319.086 70.1948 278.274 54.3443C237.462 38.4937 197.039 20.9375 153.238 12.5408C125.067 7.13943 92.8455 6.36978 70.1514 21.4576C48.3032 36.0184 41.2447 61.0838 37.4519 84.3604C34.5952 101.875 32.9173 120.312 40.7385 136.71C46.1745 148.095 55.8124 157.664 62.4827 168.57C85.6899 206.512 69.2847 253.301 44.143 290.348C32.3556 307.724 18.6615 324.323 9.55753 342.801C0.453543 361.28 -3.75523 382.525 4.21162 401.426C12.1022 420.147 30.9134 434.181 51.2916 444.061C92.6791 464.135 141.43 469.876 189.002 473.135C294.277 480.332 400.107 477.219 505.659 474.091C544.724 472.94 583.955 471.769 622.381 465.729C643.723 462.373 665.752 457.048 681.249 444.193C700.913 427.878 705.787 400.254 692.606 379.8C670.501 345.478 609.401 336.956 593.932 300.131C585.431 279.857 594.161 257.281 606.524 238.483C633.038 198.15 677.477 162.767 679.813 116.672C681.422 85.0121 660.059 53.3042 627.027 38.3204C592.407 22.6155 544.391 24.5916 518.861 50.5862C492.547 77.3226 446.327 87.6192 406.701 86.2394Z" fill="#0064AB"/>
<g opacity="0.2">
<path d="M141.068 314.713C141.335 315.763 141.688 316.789 142.122 317.782C148.802 315.21 155.557 312.741 162.388 310.375C162.33 310.094 162.272 309.809 162.198 309.518C161.509 306.539 160.04 303.8 157.943 301.581C155.211 298.767 151.673 297.391 148.271 298.227C144.87 299.063 142.365 301.931 141.231 305.661C140.371 308.609 140.315 311.735 141.068 314.713Z" fill="#3F3D56"/>
<path d="M150.9 309.03C156.732 307.602 159.948 300.236 158.084 292.577C156.221 284.919 149.983 279.868 144.151 281.296C138.32 282.725 135.104 290.091 136.968 297.75C138.831 305.408 145.069 310.459 150.9 309.03Z" fill="#3F3D56"/>
<path d="M146.773 292.079C152.605 290.65 155.821 283.284 153.957 275.625C152.094 267.967 145.856 262.916 140.024 264.345C134.193 265.773 130.977 273.139 132.84 280.798C134.704 288.456 140.942 293.507 146.773 292.079Z" fill="#3F3D56"/>
<path d="M142.658 275.13C148.489 273.702 151.706 266.336 149.842 258.677C147.978 251.019 141.74 245.968 135.909 247.396C130.078 248.825 126.861 256.191 128.725 263.85C130.589 271.508 136.827 276.559 142.658 275.13Z" fill="#3F3D56"/>
<path d="M138.532 258.184C144.364 256.755 147.58 249.389 145.716 241.73C143.853 234.072 137.615 229.021 131.783 230.45C125.952 231.878 122.736 239.244 124.599 246.903C126.463 254.561 132.701 259.612 138.532 258.184Z" fill="#3F3D56"/>
<path opacity="0.1" d="M63.7484 172.16C66.499 183.549 73.0028 193.672 82.2054 200.889C70.9561 225.683 80.5905 254.988 104.336 268.201C128.081 281.415 157.961 274.1 172.97 251.398C187.979 228.696 183.076 198.233 161.708 181.424C166.391 171.118 62.372 166.462 63.7484 172.16Z" fill="black"/>
</g>
<path opacity="0.1" d="M131.5 518.662C183.139 518.662 225 513.482 225 507.092C225 500.702 183.139 495.522 131.5 495.522C79.8614 495.522 38 500.702 38 507.092C38 513.482 79.8614 518.662 131.5 518.662Z" fill="#0064AB"/>
<path opacity="0.1" d="M537.5 464.176C615.648 464.176 679 459.211 679 453.088C679 446.964 615.648 442 537.5 442C459.352 442 396 446.964 396 453.088C396 459.211 459.352 464.176 537.5 464.176Z" fill="#0064AB"/>
<path d="M605.44 104.797H93.5601C92.3493 104.799 91.1886 105.281 90.3334 106.138C89.4783 106.995 88.9986 108.156 89 109.367V422.574C88.9958 425.016 89.9621 427.36 91.6863 429.089C93.4106 430.819 95.7515 431.793 98.1941 431.797H600.806C603.249 431.793 605.589 430.819 607.314 429.089C609.038 427.36 610.004 425.016 610 422.574V109.367C610.001 108.156 609.522 106.995 608.667 106.138C607.811 105.281 606.651 104.799 605.44 104.797Z" fill="url(#paint0_linear)"/>
<path d="M608 123.797V420.668C608 425.708 603.918 429.795 598.881 429.797H100.124C95.085 429.797 91 425.71 91 420.668V123.797H608Z" fill="white"/>
<path d="M123 120.797V429.797H95.2842C92.9181 429.797 91 425.718 91 420.685V120.824L123 120.797Z" fill="#D7D9E1"/>
<path d="M608 110.397V123.797H91V110.397C91 107.857 93.0259 105.797 95.5251 105.797H603.475C605.974 105.797 608 107.857 608 110.397Z" fill="#F6F6F6"/>
<path opacity="0.8" d="M99 116.797C100.105 116.797 101 115.902 101 114.797C101 113.693 100.105 112.797 99 112.797C97.8954 112.797 97 113.693 97 114.797C97 115.902 97.8954 116.797 99 116.797Z" fill="#FA5959"/>
<path opacity="0.8" d="M105 116.797C106.105 116.797 107 115.902 107 114.797C107 113.693 106.105 112.797 105 112.797C103.895 112.797 103 113.693 103 114.797C103 115.902 103.895 116.797 105 116.797Z" fill="#FED253"/>
<path opacity="0.8" d="M111 116.797C112.105 116.797 113 115.902 113 114.797C113 113.693 112.105 112.797 111 112.797C109.895 112.797 109 113.693 109 114.797C109 115.902 109.895 116.797 111 116.797Z" fill="#8CCF4D"/>
<path d="M379.5 96.2975V98.2975H376.5V96.2975H379.5Z" fill="url(#paint1_linear)"/>
<path fill-rule="evenodd" clip-rule="evenodd" d="M322.215 246.259C322.055 254.675 315.355 261.516 306.179 261.516C296.891 261.516 290.226 254.593 290.226 246.036L290.229 245.641C290.389 237.225 297.089 230.384 306.265 230.384C315.553 230.384 322.218 237.307 322.218 245.864L322.215 246.259ZM257.057 261.258C255.251 261.258 253.789 259.796 253.789 257.99V234.039C253.789 232.19 255.251 230.728 257.1 230.728H257.788C259.379 230.728 260.325 231.502 261.228 232.663L273.999 249.433V233.91C273.999 232.104 275.461 230.642 277.267 230.642C279.073 230.642 280.535 232.104 280.535 233.91V257.861C280.535 259.71 279.073 261.172 277.224 261.172H277.009C275.418 261.172 274.472 260.398 273.569 259.237L260.325 241.865V257.99C260.325 259.796 258.863 261.258 257.057 261.258ZM306.265 255.41C301.027 255.41 297.282 251.26 297.152 246.221L297.149 245.864C297.149 240.704 300.847 236.49 306.179 236.49C311.417 236.49 315.162 240.64 315.291 245.679L315.295 246.036C315.295 251.196 311.597 255.41 306.265 255.41ZM351.92 261C350.071 261 348.609 259.538 348.609 257.689V234.211C348.609 232.362 350.071 230.9 351.92 230.9H360.348C369.808 230.9 376.344 237.393 376.344 245.864L376.341 246.263C376.182 254.582 369.691 261 360.348 261H351.92ZM355.231 255.023V236.877H360.348C365.669 236.877 369.29 240.486 369.417 245.666L369.421 246.036C369.421 251.368 365.766 255.023 360.348 255.023H355.231ZM385.734 261.258C384.014 261.258 382.681 259.882 382.681 258.162C382.681 257.689 382.853 257.216 383.068 256.743L393.56 233.05C394.291 231.416 395.624 230.427 397.43 230.427H397.817C399.623 230.427 400.913 231.416 401.644 233.05L412.223 256.943C412.385 257.339 412.48 257.707 412.48 258.076C412.48 259.839 411.104 261.258 409.341 261.258C407.793 261.258 406.761 260.355 406.159 258.979L404.138 254.249H390.894L388.787 259.194C388.228 260.484 387.11 261.258 385.734 261.258ZM393.345 248.401L397.516 238.468L401.687 248.401H393.345ZM428.578 261.258C426.729 261.258 425.267 259.796 425.267 257.947V237.006H418.903C417.226 237.006 415.85 235.63 415.85 233.953C415.85 232.276 417.226 230.9 418.903 230.9H438.253C439.93 230.9 441.306 232.276 441.306 233.953C441.306 235.63 439.93 237.006 438.253 237.006H431.889V257.947C431.889 259.796 430.427 261.258 428.578 261.258ZM444.633 258.162C444.633 259.882 445.966 261.258 447.686 261.258C449.062 261.258 450.18 260.484 450.739 259.194L452.846 254.249H466.09L468.111 258.979C468.713 260.355 469.745 261.258 471.293 261.258C473.056 261.258 474.432 259.839 474.432 258.076C474.432 257.707 474.337 257.339 474.175 256.943L463.596 233.05C462.865 231.416 461.575 230.427 459.769 230.427H459.382C457.576 230.427 456.243 231.416 455.512 233.05L445.02 256.743C444.805 257.216 444.633 257.689 444.633 258.162ZM459.468 238.468L455.297 248.401H463.639L459.468 238.468ZM223.673 308.162C223.673 309.882 225.006 311.258 226.726 311.258C228.102 311.258 229.22 310.484 229.779 309.194L231.886 304.249H245.13L247.151 308.979C247.753 310.355 248.785 311.258 250.333 311.258C252.096 311.258 253.472 309.839 253.472 308.076C253.472 307.646 253.343 307.216 253.128 306.743L242.636 283.05C241.905 281.416 240.615 280.427 238.809 280.427H238.422C236.616 280.427 235.283 281.416 234.552 283.05L224.06 306.743C223.845 307.216 223.673 307.689 223.673 308.162ZM238.508 288.468L234.337 298.401H242.679L238.508 288.468ZM271.247 311.473H271.677C273.483 311.473 274.73 310.484 275.418 308.85L285.265 285.286C285.437 284.899 285.609 284.34 285.609 283.824C285.609 282.018 284.147 280.642 282.341 280.642C280.75 280.642 279.589 281.674 279.159 282.749L271.548 302.443L264.023 282.964C263.507 281.631 262.389 280.642 260.669 280.642C258.82 280.642 257.358 282.061 257.358 283.91C257.358 284.469 257.53 284.985 257.745 285.501L267.506 308.85C268.194 310.484 269.441 311.473 271.247 311.473ZM292.462 311.258C290.742 311.258 289.409 309.882 289.409 308.162C289.409 307.689 289.581 307.216 289.796 306.743L300.288 283.05C301.019 281.416 302.352 280.427 304.158 280.427H304.545C306.351 280.427 307.641 281.416 308.372 283.05L318.864 306.743C319.079 307.216 319.208 307.646 319.208 308.076C319.208 309.839 317.832 311.258 316.069 311.258C314.521 311.258 313.489 310.355 312.887 308.979L310.866 304.249H297.622L295.515 309.194C294.956 310.484 293.838 311.258 292.462 311.258ZM300.073 298.401L304.244 288.468L308.415 298.401H300.073ZM331.823 311.258C329.974 311.258 328.512 309.796 328.512 307.947V283.953C328.512 282.104 329.974 280.642 331.823 280.642C333.672 280.642 335.134 282.104 335.134 283.953V307.947C335.134 309.796 333.672 311.258 331.823 311.258ZM346.459 307.689C346.459 309.538 347.921 311 349.77 311H365.336C367.013 311 368.346 309.667 368.346 307.99C368.346 306.313 367.013 304.98 365.336 304.98H353.081V283.953C353.081 282.104 351.619 280.642 349.77 280.642C347.921 280.642 346.459 282.104 346.459 283.953V307.689ZM377.865 311.258C376.145 311.258 374.812 309.882 374.812 308.162C374.812 307.689 374.984 307.216 375.199 306.743L385.691 283.05C386.422 281.416 387.755 280.427 389.561 280.427H389.948C391.754 280.427 393.044 281.416 393.775 283.05L404.267 306.743C404.482 307.216 404.611 307.646 404.611 308.076C404.611 309.839 403.235 311.258 401.472 311.258C399.924 311.258 398.892 310.355 398.29 308.979L396.269 304.249H383.025L380.918 309.194C380.359 310.484 379.241 311.258 377.865 311.258ZM385.476 298.401L389.647 288.468L393.818 298.401H385.476ZM416.925 311C415.076 311 413.614 309.538 413.614 307.689V284.211C413.614 282.362 415.076 280.9 416.925 280.9H427.589C431.029 280.9 433.738 281.846 435.458 283.566C436.834 284.942 437.522 286.619 437.522 288.683L437.517 289.083C437.409 292.284 435.649 294.096 433.566 295.262C437.049 296.595 439.199 298.616 439.199 302.658L439.195 303.021C439.047 308.34 434.612 311 427.933 311H416.925ZM420.064 293.069V286.705H426.6C429.395 286.705 430.943 287.823 430.943 289.801V289.887C430.943 292.123 429.094 293.069 426.17 293.069H420.064ZM420.064 298.573V305.195H427.933C430.857 305.195 432.62 304.163 432.62 301.927L432.616 301.665C432.53 299.748 431.015 298.573 427.718 298.573H420.064ZM448.46 307.689C448.46 309.538 449.922 311 451.771 311H467.337C469.014 311 470.347 309.667 470.347 307.99C470.347 306.313 469.014 304.98 467.337 304.98H455.082V283.953C455.082 282.104 453.62 280.642 451.771 280.642C449.922 280.642 448.46 282.104 448.46 283.953V307.689ZM478.877 307.689C478.877 309.538 480.339 311 482.188 311H499.087C500.721 311 502.054 309.71 502.054 308.076C502.054 306.442 500.721 305.109 499.087 305.109H485.456V298.788H496.937C498.571 298.788 499.904 297.498 499.904 295.864C499.904 294.23 498.571 292.897 496.937 292.897H485.456V286.791H498.872C500.506 286.791 501.839 285.501 501.839 283.867C501.839 282.233 500.506 280.9 498.872 280.9H482.188C480.339 280.9 478.877 282.362 478.877 284.211V307.689Z" fill="#5A5A5A"/>
<path opacity="0.1" d="M223.432 222.942C223.432 222.942 219.833 230.313 222.045 229.814C224.257 229.315 223.432 222.942 223.432 222.942Z" fill="black"/>
<path d="M427.429 76.0428C427.429 76.0428 398.942 74.2852 402.271 94.7475C402.271 94.7475 401.603 98.3625 404.804 100.005C404.804 100.005 404.857 98.47 407.728 98.9996C408.751 99.1758 409.79 99.2273 410.824 99.1531C412.226 99.0574 413.558 98.4939 414.617 97.5489C414.617 97.5489 422.631 94.1641 425.75 80.7478C425.75 80.7478 428.059 77.8158 427.999 77.0636L423.186 79.1743C423.186 79.1743 424.828 82.728 423.531 85.683C423.531 85.683 423.381 79.3048 422.451 79.4506C422.264 79.4506 419.955 80.6864 419.955 80.6864C419.955 80.6864 422.781 86.8726 420.645 91.378C420.645 91.378 421.454 83.7488 419.07 81.1315L415.682 83.1578C415.682 83.1578 418.988 89.5513 416.746 94.7705C416.746 94.7705 417.324 86.7652 414.97 83.649L411.896 86.0974C411.896 86.0974 415.007 92.4065 413.111 96.7354C413.111 96.7354 412.863 87.4176 411.229 86.7115C411.229 86.7115 408.545 89.1368 408.14 90.1346C408.14 90.1346 410.262 94.7398 408.942 97.1268C408.942 97.1268 408.133 90.9175 407.443 90.8868C407.443 90.8868 404.767 95.0008 404.49 97.7946C404.619 95.19 405.413 92.6655 406.791 90.4723C405.249 90.7711 403.825 91.5263 402.698 92.6444C402.698 92.6444 403.11 89.7355 407.451 89.4822C407.451 89.4822 409.7 86.3584 410.254 86.1665C410.254 86.1665 405.936 85.7981 403.32 86.9878C403.32 86.9878 405.621 84.2477 411.049 85.4527L414.048 82.9199C414.048 82.9199 408.365 82.1523 405.951 83.0043C405.951 83.0043 408.725 80.5789 414.865 82.3442L418.163 80.3256C418.163 80.3256 413.321 79.2511 410.434 79.6425C410.434 79.6425 413.478 77.9616 419.13 79.7807L421.492 78.6985C421.492 78.6985 417.938 77.9847 416.904 77.8695C415.869 77.7544 415.809 77.4627 415.809 77.4627C418.057 77.0797 420.365 77.3455 422.474 78.2303C422.474 78.2303 427.534 76.3652 427.429 76.0428Z" fill="#0064AB"/>
<path opacity="0.1" d="M515.494 178.043C515.494 178.043 486.934 176.285 490.271 196.747C490.271 196.747 489.602 200.363 492.812 202.005C492.812 202.005 492.864 200.47 495.75 201C496.775 201.176 497.817 201.227 498.854 201.153C500.243 201.05 501.562 200.49 502.612 199.557C502.612 199.557 510.654 196.164 513.78 182.748C513.78 182.748 516.088 179.823 515.997 179.071L511.172 181.174C511.172 181.174 512.818 184.728 511.526 187.683C511.526 187.683 511.368 181.305 510.443 181.451C510.255 181.451 507.933 182.686 507.933 182.686C507.933 182.686 510.774 188.88 508.632 193.378C508.632 193.378 509.444 185.749 507.046 183.132L503.687 185.135C503.687 185.135 507.001 191.528 504.754 196.747C504.754 196.747 505.333 188.742 502.973 185.626L499.899 188.082C499.899 188.082 503.01 194.383 501.116 198.712C501.116 198.712 500.868 189.395 499.23 188.688C499.23 188.688 496.539 191.114 496.126 192.112C496.126 192.112 498.26 196.717 496.938 199.104C496.938 199.104 496.126 192.894 495.434 192.864C495.434 192.864 492.751 196.978 492.473 199.772C492.608 197.167 493.406 194.643 494.788 192.449C493.24 192.749 491.811 193.504 490.677 194.621C490.677 194.621 491.098 191.712 495.45 191.459C495.45 191.459 497.667 188.335 498.26 188.143C498.26 188.143 493.931 187.775 491.308 188.965C491.308 188.965 493.616 186.225 499.05 187.468L502.056 184.935C502.056 184.935 496.351 184.168 493.939 185.02C493.939 185.02 496.72 182.594 502.875 184.36L506.182 182.341C506.182 182.341 501.319 181.274 498.426 181.658C498.426 181.658 501.485 179.977 507.151 181.796L509.519 180.714C509.519 180.714 505.956 180 504.912 179.885C503.867 179.77 503.814 179.478 503.814 179.478C506.071 179.095 508.387 179.361 510.503 180.246C510.503 180.246 515.584 178.365 515.494 178.043Z" fill="#0064AB"/>
<path opacity="0.1" d="M339.96 159.669C339.96 159.669 346.694 131.383 325.885 131.284C325.885 131.284 322.429 130.003 320.251 132.931C320.251 132.931 321.736 133.244 320.728 136.035C320.38 137.022 320.147 138.046 320.036 139.086C319.887 140.503 320.208 141.931 320.951 143.151C320.951 143.151 322.899 151.769 335.574 157.168C335.574 157.168 338.067 159.975 338.821 160.005L337.59 154.827C337.59 154.827 333.788 155.872 331.095 154.064C331.095 154.064 337.428 154.987 337.436 154.064C337.436 153.873 336.667 151.349 336.667 151.349C336.667 151.349 330.056 153.134 325.977 150.228C325.977 150.228 333.373 152.333 336.382 150.388L334.997 146.636C334.997 146.636 328.07 148.871 323.329 145.736C323.329 145.736 331.141 147.673 334.635 145.843L332.749 142.35C332.749 142.35 325.977 144.394 322.029 141.763C322.029 141.763 331.264 143.09 332.264 141.58C332.264 141.58 330.341 138.476 329.425 137.896C329.425 137.896 324.53 139.254 322.375 137.522C322.375 137.522 328.647 137.759 328.794 137.103C328.794 137.103 325.2 133.725 322.46 132.962C325.013 133.538 327.371 134.763 329.302 136.516C329.273 134.917 328.776 133.362 327.87 132.039C327.87 132.039 330.671 132.954 330.179 137.378C330.179 137.378 332.872 140.123 332.957 140.748C332.957 140.748 334.073 136.485 333.357 133.656C333.357 133.656 335.666 136.432 333.488 141.656L335.458 145.126C335.458 145.126 337.244 139.559 336.79 136.996C336.79 136.996 338.706 140.184 335.882 146.041L337.305 149.694C337.305 149.694 339.206 145.012 339.329 142.068C339.329 142.068 340.461 145.408 337.667 150.769L338.329 153.317C338.329 153.317 339.653 149.877 339.945 148.855C340.238 147.833 340.538 147.826 340.538 147.826C340.526 150.146 339.862 152.417 338.621 154.384C338.621 154.384 339.63 159.708 339.96 159.669Z" fill="#0064AB"/>
<path opacity="0.1" d="M276 169.29C276 169.29 252.704 151.977 244.377 170.73C244.377 170.73 241.835 173.346 243.659 176.478C243.659 176.478 244.529 175.257 246.712 177.282C247.485 177.997 248.341 178.618 249.262 179.132C250.508 179.822 251.948 180.088 253.361 179.891C253.361 179.891 262.032 181.551 272.016 172.217C272.016 172.217 275.58 171.079 275.916 170.412L270.657 169.494C270.657 169.494 270.107 173.339 267.398 175.06C267.398 175.06 270.749 169.707 269.878 169.32C269.703 169.236 267.077 168.941 267.077 168.941C267.077 168.941 266.1 175.629 261.826 178.154C261.826 178.154 266.688 172.308 266.085 168.819L262.093 168.607C262.093 168.607 261.413 175.728 256.65 178.791C256.65 178.791 261.513 172.505 261.23 168.622L257.276 168.941C257.276 168.941 256.475 175.864 252.498 178.382C252.498 178.382 257.376 170.556 256.376 169.07C256.376 169.07 252.765 169.578 251.872 170.169C251.872 170.169 251.178 175.128 248.735 176.387C248.735 176.387 251.445 170.814 250.895 170.427C250.895 170.427 246.369 172.33 244.59 174.499C246.129 172.423 248.186 170.781 250.559 169.737C249.083 169.127 247.459 168.959 245.888 169.252C245.888 169.252 247.827 167.083 251.658 169.29C251.658 169.29 255.246 167.947 255.857 168.114C255.857 168.114 252.384 165.407 249.506 164.937C249.506 164.937 252.971 163.951 256.902 167.97L260.864 167.568C260.864 167.568 256.46 163.777 253.933 163.14C253.933 163.14 257.62 162.677 261.871 167.545L265.779 167.72C265.779 167.72 262.245 164.141 259.581 162.852C259.581 162.852 263.085 163.155 266.901 167.803L269.504 168.22C269.504 168.22 266.871 165.657 266.047 164.99C265.222 164.323 265.337 164.042 265.337 164.042C267.46 164.976 269.281 166.478 270.596 168.38C270.596 168.38 275.901 169.6 276 169.29Z" fill="#0064AB"/>
<path opacity="0.1" d="M354 7.29467C354 7.29467 330.704 -10.0292 322.377 8.7358C322.377 8.7358 319.835 11.3526 321.659 14.4852C321.659 14.4852 322.529 13.264 324.712 15.2892C325.49 16.0003 326.348 16.6189 327.269 17.1323C328.516 17.8226 329.955 18.089 331.368 17.8908C331.368 17.8908 340.039 19.5519 350.023 10.2073C350.023 10.2073 353.588 9.07712 353.916 8.40207L348.657 7.49946C348.657 7.49946 348.115 11.345 345.398 13.0668C345.398 13.0668 348.756 7.71184 347.886 7.32501C347.71 7.24158 345.085 6.94577 345.085 6.94577C345.085 6.94577 344.077 13.6508 339.803 16.1614C339.803 16.1614 344.657 10.3135 344.062 6.82441L340.07 6.61203C340.07 6.61203 339.383 13.7342 334.627 16.791C334.627 16.791 339.49 10.5031 339.207 6.61962L335.261 6.93818C335.261 6.93818 334.452 13.8708 330.475 16.389C330.475 16.389 335.36 8.56135 334.36 7.07471C334.36 7.07471 330.75 7.5829 329.857 8.17452C329.857 8.17452 329.162 13.135 326.72 14.3941C326.72 14.3941 329.429 8.81924 328.88 8.42482C328.88 8.42482 324.353 10.3362 322.575 12.5055C324.111 10.4263 326.169 8.78382 328.544 7.74218C327.066 7.12785 325.439 6.95903 323.865 7.25675C323.865 7.25675 325.811 5.08747 329.643 7.29467C329.643 7.29467 333.231 5.94456 333.841 6.11901C333.841 6.11901 330.368 3.41121 327.491 2.93336C327.491 2.93336 330.948 1.95491 334.879 5.96732L338.841 5.56532C338.841 5.56532 334.444 1.77287 331.91 1.12815C331.91 1.12815 335.597 0.673058 339.856 5.54256L343.764 5.70943C343.764 5.70943 340.23 2.12936 337.559 0.84751C337.559 0.84751 341.07 1.15091 344.886 5.80045L347.481 6.21762C347.481 6.21762 344.84 3.68426 344.016 3.03196C343.192 2.37966 343.306 2.09143 343.306 2.09143C345.43 3.02482 347.251 4.52701 348.565 6.42999C348.565 6.42999 353.87 7.5829 354 7.29467Z" fill="#0064AB"/>
<path opacity="0.1" d="M443 29.0515C443 29.0515 433.611 1.78514 415.902 12.4999C415.902 12.4999 412.285 13.255 412 16.8114C412 16.8114 413.424 16.298 414.055 19.1673C414.289 20.188 414.643 21.1787 415.109 22.1197C415.745 23.3862 416.782 24.4166 418.065 25.057C418.065 25.057 424.314 31.2865 437.982 29.2251C437.982 29.2251 441.592 30.2974 442.253 29.9274L438.405 26.2199C438.405 26.2199 435.743 29.0666 432.495 28.9533C432.495 28.9533 438.367 26.4464 437.882 25.6385C437.782 25.4799 435.773 23.7658 435.773 23.7658C435.773 23.7658 431.109 28.6966 426.107 28.3719C426.107 28.3719 433.503 26.3029 435.011 23.0863L431.825 20.6775C431.825 20.6775 427.161 26.1293 421.443 25.9631C421.443 25.9631 429.139 23.5393 431.086 20.1867L427.623 18.231C427.623 18.231 423.005 23.4638 418.218 23.2977C418.218 23.2977 426.777 19.6204 426.8 17.8384C426.8 17.8384 423.513 16.23 422.428 16.2149C422.428 16.2149 418.996 19.8922 416.271 19.56C416.271 19.56 421.72 16.5019 421.489 15.8751C421.489 15.8751 416.641 14.9011 413.909 15.6864C416.38 14.8422 419.033 14.647 421.605 15.12C420.727 13.7903 419.472 12.7407 417.995 12.0997C417.995 12.0997 420.858 11.4125 422.775 15.3692C422.775 15.3692 426.53 16.2829 426.93 16.7586C426.93 16.7586 425.607 12.598 423.49 10.5895C423.49 10.5895 426.93 11.7297 427.869 17.2494L431.394 19.1371C431.394 19.1371 429.94 13.5419 428.185 11.5862C428.185 11.5862 431.517 13.2776 432.241 19.6581L435.396 21.9914C435.396 21.9914 434.519 17.0682 433.041 14.516C433.041 14.516 435.781 16.7359 436.274 22.6936L438.19 24.4907C438.19 24.4907 437.482 20.9116 437.189 19.8998C436.897 18.8879 437.136 18.82 437.136 18.82C438.359 20.7788 439.006 23.0315 439.006 25.3289C439.006 25.3289 442.731 29.2478 443 29.0515Z" fill="#0064AB"/>
<path opacity="0.1" d="M381.477 30.1902C381.477 30.1902 352.768 26.9452 355.139 47.6224C355.139 47.6224 354.283 51.2057 357.412 53.005C357.412 53.005 357.54 51.4671 360.441 52.1592C361.467 52.3831 362.514 52.4889 363.562 52.4745C364.979 52.4485 366.348 51.9545 367.463 51.0673C367.463 51.0673 375.727 48.0914 379.583 34.827C379.583 34.827 382.052 32.0203 381.999 31.2591L377.038 33.1199C377.038 33.1199 378.553 36.7571 377.038 39.6483C377.038 39.6483 377.197 33.2583 376.28 33.3583C376.091 33.3583 373.697 34.4656 373.697 34.4656C373.697 34.4656 376.242 40.8095 373.864 45.2309C373.864 45.2309 375.061 37.6337 372.781 34.8962L369.258 36.7417C369.258 36.7417 372.288 43.3162 369.751 48.4221C369.751 48.4221 370.736 40.4404 368.516 37.2031L365.297 39.5099C365.297 39.5099 368.115 45.9768 365.986 50.2137C365.986 50.2137 366.206 40.8787 364.592 40.0866C364.592 40.0866 361.759 42.3935 361.297 43.347C361.297 43.347 363.214 48.0376 361.767 50.3829C361.767 50.3829 361.26 44.1313 360.593 44.0698C360.593 44.0698 357.684 48.0453 357.26 50.852C357.523 48.2499 358.453 45.763 359.957 43.6392C358.385 43.8597 356.911 44.5412 355.715 45.6C355.715 45.6 356.275 42.7165 360.669 42.6857C360.669 42.6857 363.055 39.6791 363.699 39.5176C363.699 39.5176 359.358 38.9255 356.654 39.979C356.654 39.979 359.116 37.3492 364.524 38.8794L367.713 36.5033C367.713 36.5033 361.949 35.3191 359.51 36.0881C359.51 36.0881 362.434 33.7812 368.539 35.8958L371.97 34.0427C371.97 34.0427 367.13 32.7201 364.199 32.9585C364.199 32.9585 367.357 31.4205 372.97 33.5505L375.409 32.5894C375.409 32.5894 371.857 31.6897 370.811 31.5205C369.766 31.3513 369.728 31.0591 369.728 31.0591C372.018 30.7924 374.336 31.1757 376.424 32.1664C376.424 32.1664 381.53 30.5132 381.477 30.1902Z" fill="#0064AB"/>
<path opacity="0.1" d="M634.499 255.191C634.499 255.191 605.765 251.943 608.139 272.617C608.139 272.617 607.282 276.204 610.415 278.005C610.415 278.005 610.544 276.466 613.449 277.151C614.475 277.382 615.524 277.488 616.574 277.466C617.993 277.444 619.366 276.949 620.481 276.058C620.481 276.058 628.756 273.079 632.579 259.809C632.579 259.809 635.052 256.992 634.999 256.238L630.031 258.093C630.031 258.093 631.548 261.741 630.031 264.635C630.031 264.635 630.19 258.231 629.272 258.339C629.083 258.339 626.686 259.44 626.686 259.44C626.686 259.44 629.234 265.79 626.852 270.216C626.852 270.216 628.051 262.618 625.768 259.871L622.241 261.726C622.241 261.726 625.275 268.307 622.741 273.418C622.741 273.418 623.72 265.428 621.497 262.18L618.273 264.489C618.273 264.489 621.095 270.962 618.964 275.196C618.964 275.196 619.184 265.851 617.568 265.066C617.568 265.066 614.739 267.375 614.268 268.33C614.268 268.33 616.195 273.025 614.739 275.373C614.739 275.373 614.23 269.115 613.563 269.053C613.563 269.053 610.65 273.033 610.225 275.842C610.489 273.237 611.42 270.748 612.926 268.622C611.351 268.839 609.873 269.522 608.678 270.585C608.678 270.585 609.239 267.691 613.639 267.66C613.639 267.66 616.036 264.651 616.673 264.497C616.673 264.497 612.327 263.896 609.619 264.951C609.619 264.951 612.084 262.326 617.507 263.858L620.693 261.479C620.693 261.479 614.989 260.386 612.509 261.141C612.509 261.141 615.437 258.831 621.55 260.94L624.986 259.093C624.986 259.093 620.139 257.769 617.204 258.008C617.204 258.008 620.367 256.468 625.988 258.601L628.43 257.631C628.43 257.631 624.873 256.73 623.826 256.569C622.779 256.407 622.741 256.107 622.741 256.107C625.034 255.835 627.356 256.216 629.447 257.207C629.447 257.207 634.574 255.522 634.499 255.191Z" fill="#0064AB"/>
<path opacity="0.1" d="M678.528 282.19C678.528 282.19 649.763 278.949 652.14 299.617C652.14 299.617 651.289 303.204 654.418 305.005C654.418 305.005 654.547 303.466 657.455 304.158C658.48 304.384 659.528 304.488 660.576 304.466C661.99 304.437 663.356 303.946 664.472 303.065C664.472 303.065 672.749 300.086 676.576 286.808C676.576 286.808 679.06 283.999 678.999 283.237L674.025 285.092C674.025 285.092 675.544 288.74 674.025 291.635C674.025 291.635 674.184 285.238 673.266 285.338C673.076 285.338 670.676 286.439 670.676 286.439C670.676 286.439 673.228 292.789 670.843 297.215C670.843 297.215 672.043 289.618 669.757 286.877L666.226 288.725C666.226 288.725 669.264 295.306 666.727 300.417C666.727 300.417 667.707 292.427 665.482 289.187L662.255 291.496C662.255 291.496 665.079 297.97 662.953 302.211C662.953 302.211 663.166 292.858 661.548 292.073C661.548 292.073 658.716 294.383 658.245 295.337C658.245 295.337 660.174 300.032 658.716 302.38C658.716 302.38 658.207 296.122 657.539 296.061C657.539 296.061 654.623 300.04 654.205 302.85C654.468 300.246 655.397 297.757 656.901 295.63C655.325 295.85 653.847 296.532 652.648 297.592C652.648 297.592 653.218 294.698 657.622 294.675C657.622 294.675 660.014 291.665 660.66 291.504C660.66 291.504 656.309 290.911 653.598 291.966C653.598 291.966 656.066 289.333 661.495 290.865L664.685 288.486C664.685 288.486 658.974 287.393 656.491 288.148C656.491 288.148 659.422 285.838 665.543 287.955L668.983 286.1C668.983 286.1 664.13 284.776 661.191 285.015C661.191 285.015 664.358 283.475 669.985 285.607L672.43 284.645C672.43 284.645 668.869 283.745 667.828 283.575C666.788 283.406 666.735 283.113 666.735 283.113C669.031 282.846 671.354 283.23 673.448 284.222C673.448 284.222 678.604 282.521 678.528 282.19Z" fill="#0064AB"/>
<path opacity="0.1" d="M581 55.2895C581 55.2895 557.704 37.9774 549.377 56.7303C549.377 56.7303 546.835 59.3465 548.659 62.4783C548.659 62.4783 549.529 61.2574 551.712 63.2821C552.485 63.9967 553.341 64.6178 554.262 65.1324C555.509 65.8215 556.948 66.0877 558.361 65.8907C558.361 65.8907 567.032 67.5514 577.023 58.2166C577.023 58.2166 580.58 57.0791 580.916 56.4118L575.672 55.4715C575.672 55.4715 575.123 59.3161 572.413 61.0375C572.413 61.0375 575.764 55.6839 574.894 55.2971C574.718 55.2137 572.1 54.918 572.1 54.918C572.1 54.918 571.115 61.6062 566.841 64.1314C566.841 64.1314 571.703 58.2849 571.1 54.7966L567.108 54.5843C567.108 54.5843 566.429 61.7048 561.666 64.7684C561.666 64.7684 566.535 58.482 566.245 54.5995L562.292 54.918C562.292 54.918 561.528 61.8413 557.513 64.3589C557.513 64.3589 562.398 56.5332 561.391 55.0469C561.391 55.0469 557.78 55.555 556.887 56.1464C556.887 56.1464 556.2 61.1058 553.758 62.3645C553.758 62.3645 556.46 56.791 555.91 56.4043C555.91 56.4043 551.384 58.3076 549.606 60.4764C551.144 58.3998 553.202 56.7583 555.575 55.7142C554.098 55.1045 552.475 54.9359 550.903 55.2289C550.903 55.2289 552.85 53.0601 556.681 55.2668C556.681 55.2668 560.261 53.9246 560.872 54.0914C560.872 54.0914 557.399 51.3843 554.521 50.9141C554.521 50.9141 557.987 49.9283 561.918 53.9473L565.879 53.5454C565.879 53.5454 561.482 49.7539 558.948 49.1169C558.948 49.1169 562.635 48.6544 566.887 53.5227L570.802 53.6971C570.802 53.6971 567.261 50.1179 564.597 48.8288C564.597 48.8288 568.108 49.1321 571.917 53.7805L574.52 54.1976C574.52 54.1976 571.886 51.6345 571.062 50.9672C570.237 50.2999 570.36 50.08 570.36 50.08C572.48 51.0157 574.298 52.5171 575.611 54.4175C575.611 54.4175 580.901 55.6005 581 55.2895Z" fill="#0064AB"/>
<path opacity="0.1" d="M599 181.056C599 181.056 591.012 153.161 573.047 163.175C573.047 163.175 569.448 163.731 569 167.341C569 167.341 570.427 166.891 570.921 169.808C571.104 170.856 571.41 171.879 571.832 172.854C572.395 174.167 573.371 175.258 574.611 175.962C574.611 175.962 580.488 182.511 594.049 181.049C594.049 181.049 597.557 182.282 598.226 181.947L594.634 178.033C594.634 178.033 591.878 180.79 588.689 180.531C588.689 180.531 594.581 178.246 594.125 177.431C594.034 177.264 592.136 175.444 592.136 175.444C592.136 175.444 587.322 180.211 582.402 179.655C582.402 179.655 589.79 177.903 591.415 174.751L588.377 172.177C588.377 172.177 583.533 177.462 577.907 177.051C577.907 177.051 585.56 174.941 587.671 171.659L584.345 169.534C584.345 169.534 579.524 174.598 574.847 174.218C574.847 174.218 583.45 170.89 583.556 169.1C583.556 169.1 580.382 167.333 579.311 167.272C579.311 167.272 575.765 170.821 573.07 170.364C573.07 170.364 578.582 167.524 578.385 166.884C578.385 166.884 573.647 165.688 570.921 166.351C573.39 165.616 576.007 165.54 578.514 166.13C577.711 164.752 576.523 163.64 575.097 162.931C575.097 162.931 577.952 162.36 579.653 166.435C579.653 166.435 583.305 167.516 583.685 168.019C583.685 168.019 582.569 163.761 580.572 161.652C580.572 161.652 583.913 162.947 584.588 168.552L587.975 170.615C587.975 170.615 586.79 164.904 585.15 162.893C585.15 162.893 588.355 164.744 588.787 171.202L591.825 173.692C591.825 173.692 591.179 168.696 589.843 166.077C589.843 166.077 592.447 168.437 592.66 174.454L594.467 176.358C594.467 176.358 593.935 172.717 593.708 171.682C593.48 170.646 593.708 170.501 593.708 170.501C594.831 172.527 595.37 174.826 595.264 177.142C595.264 177.142 598.727 181.239 599 181.056Z" fill="#0064AB"/>
<path opacity="0.1" d="M672 25.2354C672 25.2354 656.346 1.21368 641.811 15.5909C641.811 15.5909 638.486 17.0838 639.068 20.6296C639.068 20.6296 640.333 19.8085 641.635 22.4212C642.103 23.3471 642.685 24.2143 643.367 25.004C644.28 26.0818 645.532 26.8371 646.93 27.1538C646.93 27.1538 654.477 31.6924 667.196 26.5566C667.196 26.5566 670.943 26.7507 671.494 26.2506L666.897 23.5633C666.897 23.5633 665.005 26.9224 661.84 27.5569C661.84 27.5569 666.912 23.8245 666.23 23.1378C666.1 23.0034 663.74 21.824 663.74 21.824C663.74 21.824 660.423 27.6316 655.504 28.4751C655.504 28.4751 662.162 24.78 662.851 21.3612L659.181 19.7861C659.181 19.7861 655.986 26.0938 650.424 27.2509C650.424 27.2509 657.243 23.1527 658.354 19.48L654.523 18.4051C654.523 18.4051 651.289 24.5038 646.654 25.4369C646.654 25.4369 654.04 19.9279 653.634 18.211C653.634 18.211 650.064 17.4272 649.037 17.6661C649.037 17.6661 646.608 21.9882 643.865 22.3017C643.865 22.3017 648.401 18.1065 648.025 17.5541C648.025 17.5541 643.099 17.7407 640.647 19.1217C642.834 17.7413 645.354 16.9434 647.956 16.8076C646.791 15.7333 645.329 15.0146 643.75 14.7399C643.75 14.7399 646.347 13.4186 649.113 16.7778C649.113 16.7778 652.944 16.7778 653.473 17.151C653.473 17.151 651.175 13.4186 648.654 12.0227C648.654 12.0227 652.255 12.3213 654.492 17.4048L658.362 18.4051C658.362 18.4051 655.596 13.3664 653.442 11.9257C653.442 11.9257 657.067 12.7766 659.312 18.741L662.928 20.234C662.928 20.234 660.89 15.7178 658.844 13.6052C658.844 13.6052 662.032 15.0982 663.94 20.7043L666.238 21.9957C666.238 21.9957 664.706 18.7186 664.162 17.8154C663.618 16.9121 663.832 16.7031 663.832 16.7031C665.49 18.2987 666.66 20.3121 667.211 22.5182C667.211 22.5182 671.793 25.4892 672 25.2354Z" fill="#0064AB"/>
<path d="M523 118.576C523 118.576 508.033 92.883 492.958 107.505C492.958 107.505 489.569 108.993 490.046 112.707C490.046 112.707 491.333 111.877 492.565 114.659C493.006 115.647 493.562 116.579 494.221 117.432C495.106 118.588 496.34 119.414 497.734 119.783C497.734 119.783 505.167 124.782 518.116 119.783C518.116 119.783 521.875 120.104 522.445 119.595L517.924 116.633C517.924 116.633 515.921 120.089 512.716 120.661C512.716 120.661 517.931 116.876 517.277 116.163C517.138 116.014 514.812 114.698 514.812 114.698C514.812 114.698 511.291 120.692 506.338 121.421C506.338 121.421 513.148 117.754 513.941 114.196L510.305 112.457C510.305 112.457 506.893 118.984 501.262 120.026C501.262 120.026 508.249 115.944 509.481 112.128L505.676 110.874C505.676 110.874 502.225 117.143 497.541 118.004C497.541 118.004 505.136 112.457 504.782 110.647C504.782 110.647 501.223 109.706 500.16 109.926C500.16 109.926 497.58 114.384 494.814 114.627C494.814 114.627 499.506 110.38 499.151 109.785C499.151 109.785 494.19 109.824 491.687 111.195C493.93 109.819 496.487 109.063 499.105 109.001C497.966 107.836 496.518 107.036 494.938 106.697C494.938 106.697 497.595 105.389 500.33 109.001C500.33 109.001 504.181 109.134 504.697 109.534C504.697 109.534 502.517 105.616 500.022 104.002C500.022 104.002 503.627 104.425 505.714 109.832L509.566 111.007C509.566 111.007 506.954 105.632 504.828 104.049C504.828 104.049 508.449 105.06 510.513 111.383L514.095 113.084C514.095 113.084 512.193 108.28 510.244 106.031C510.244 106.031 513.394 107.7 515.143 113.64L517.4 115.066C517.4 115.066 515.952 111.579 515.443 110.615C514.935 109.652 515.151 109.44 515.151 109.44C516.765 111.166 517.877 113.315 518.363 115.646C518.363 115.646 522.777 118.835 523 118.576Z" fill="#0064AB"/>
<path d="M428.996 170.404C428.996 170.404 429.772 141.299 409.23 145.401C409.23 145.401 405.552 144.844 404 148.159C404 148.159 405.552 148.159 405.117 151.1C404.975 152.149 404.96 153.21 405.071 154.263C405.211 155.69 405.825 157.032 406.817 158.082C406.817 158.082 410.519 166.134 424.185 168.869C424.185 168.869 427.219 171.122 427.98 171L425.651 166.172C425.651 166.172 422.12 167.96 419.086 166.745C419.086 166.745 425.527 166.371 425.349 165.439C425.349 165.248 424.014 162.926 424.014 162.926C424.014 162.926 417.852 166.019 413.235 163.987C413.235 163.987 420.995 164.56 423.533 162.047L421.368 158.663C421.368 158.663 415.02 162.238 409.665 160.13C409.665 160.13 417.775 160.45 420.848 157.952L418.264 154.897C418.264 154.897 412.001 158.273 407.562 156.486C407.562 156.486 416.968 155.928 417.651 154.24C417.651 154.24 415.105 151.589 414.081 151.184C414.081 151.184 409.533 153.476 407.05 152.238C407.05 152.238 413.258 151.215 413.297 150.535C413.297 150.535 409.052 147.945 406.188 147.754C408.829 147.801 411.411 148.528 413.677 149.863C413.324 148.301 412.514 146.875 411.349 145.76C411.349 145.76 414.306 146.089 414.709 150.497C414.709 150.497 417.945 152.651 418.155 153.247C418.155 153.247 418.38 148.839 417.084 146.211C417.084 146.211 419.94 148.465 418.869 154.026L421.531 157.036C421.531 157.036 422.136 151.215 421.166 148.793C421.166 148.793 423.711 151.536 422.144 157.846L424.293 161.138C424.293 161.138 425.209 156.165 424.72 153.239C424.72 153.239 426.521 156.295 424.875 162.108L426.055 164.476C426.055 164.476 426.653 160.832 426.73 159.771C426.808 158.709 427.103 158.64 427.103 158.64C427.57 160.919 427.384 163.281 426.567 165.462C426.567 165.462 428.655 170.504 428.996 170.404Z" fill="#0064AB"/>
<path opacity="0.1" d="M480.34 496.818C490.653 496.818 499.013 495.405 499.013 493.663C499.013 491.921 490.653 490.508 480.34 490.508C470.028 490.508 461.668 491.921 461.668 493.663C461.668 495.405 470.028 496.818 480.34 496.818Z" fill="#0064AB"/>
<path opacity="0.1" d="M412.272 544.716C422.584 544.716 430.944 543.304 430.944 541.561C430.944 539.819 422.584 538.406 412.272 538.406C401.959 538.406 393.599 539.819 393.599 541.561C393.599 543.304 401.959 544.716 412.272 544.716Z" fill="#0064AB"/>
<path opacity="0.1" d="M60.2741 561.574C70.5867 561.574 78.9466 560.161 78.9466 558.419C78.9466 556.677 70.5867 555.264 60.2741 555.264C49.9615 555.264 41.6016 556.677 41.6016 558.419C41.6016 560.161 49.9615 561.574 60.2741 561.574Z" fill="#0064AB"/>
<path opacity="0.1" d="M553.9 541.561C564.213 541.561 572.573 540.149 572.573 538.406C572.573 536.664 564.213 535.252 553.9 535.252C543.588 535.252 535.228 536.664 535.228 538.406C535.228 540.149 543.588 541.561 553.9 541.561Z" fill="#0064AB"/>
<path d="M573.342 503.093C588.74 503.093 601.223 500.982 601.223 498.378C601.223 495.774 588.74 493.663 573.342 493.663C557.944 493.663 545.462 495.774 545.462 498.378C545.462 500.982 557.944 503.093 573.342 503.093Z" fill="#0064AB"/>
<path d="M584.901 490.661C586.174 489.627 587.1 488.228 587.557 486.653C587.903 485.058 587.224 483.151 585.705 482.569C584 481.917 582.176 483.096 580.789 484.289C579.402 485.481 577.829 486.847 576.019 486.598C577.908 484.881 578.761 482.3 578.265 479.796C578.187 479.285 577.971 478.806 577.641 478.409C576.691 477.396 574.979 477.833 573.842 478.631C570.236 481.168 569.231 486.064 569.21 490.474C568.849 488.886 569.154 487.229 569.148 485.62C569.141 484.011 568.69 482.153 567.31 481.307C566.463 480.835 565.506 480.596 564.537 480.614C562.914 480.558 561.104 480.718 560.002 481.903C558.615 483.373 558.983 485.849 560.175 487.45C561.368 489.052 563.191 490.085 564.869 491.208C566.212 492.01 567.359 493.103 568.225 494.405C568.324 494.586 568.405 494.777 568.468 494.973H578.633C580.908 493.827 583.017 492.376 584.901 490.661Z" fill="#0064AB"/>
<path d="M47.7379 543.754C47.7379 543.754 58.3812 543.428 61.6054 541.14C64.8296 538.852 77.9898 536.127 78.7872 539.795C79.5845 543.463 94.7902 558.024 82.7671 558.121C70.744 558.218 54.8311 556.249 51.6277 554.293C48.4244 552.338 47.7379 543.754 47.7379 543.754Z" fill="#A8A8A8"/>
<path opacity="0.2" d="M82.9682 556.845C70.9451 556.942 55.0322 554.973 51.8288 553.018C49.3881 551.534 48.4174 546.202 48.0915 543.74H47.7379C47.7379 543.74 48.4313 552.331 51.6139 554.28C54.7965 556.228 70.7302 558.204 82.7532 558.107C86.2201 558.107 87.4196 556.845 87.3572 555.014C86.8719 556.131 85.5475 556.824 82.9682 556.845Z" fill="black"/>
<path fill-rule="evenodd" clip-rule="evenodd" d="M241.111 423.823C240.059 423.823 239.007 423.388 238.204 422.516C236.599 420.773 236.599 417.95 238.204 416.207L241.111 413.053V374.746C241.111 369.826 244.801 365.823 249.333 365.823L258.266 365.826C266.942 365.828 274 373.49 274 382.905C274 387.467 272.362 391.757 269.391 394.981L244.017 422.516C243.215 423.388 242.163 423.823 241.111 423.823Z" fill="#0064AB"/>
<path fill-rule="evenodd" clip-rule="evenodd" d="M220.544 295.823L223 299.386L157.456 352.823L155 349.261L220.544 295.823Z" fill="#C4C3C2"/>
<path fill-rule="evenodd" clip-rule="evenodd" d="M146.966 433.823L131 430.508L142.138 364.724C143.236 358.236 146.853 352.611 152.029 349.339L216.381 308.663C218.636 307.237 221.475 307.659 223.312 309.693C225.897 312.555 225.453 317.325 222.395 319.543L161.357 363.829C159.507 365.17 158.233 367.289 157.825 369.695L146.966 433.823Z" fill="#0064AB"/>
<path fill-rule="evenodd" clip-rule="evenodd" d="M124 473.823H156V455.823H124V473.823Z" fill="#5C575F"/>
<path fill-rule="evenodd" clip-rule="evenodd" d="M104 424.823H47V420.323C47 417.838 48.8232 415.823 51.0716 415.823H99.9288C102.177 415.823 104 417.838 104 420.323V424.823Z" fill="#6D6970"/>
<path fill-rule="evenodd" clip-rule="evenodd" d="M200.714 506.823H62.2855C53.2914 506.823 46 498.541 46 488.323C46 478.106 53.2914 469.823 62.2855 469.823H200.714C209.709 469.823 217 478.106 217 488.323C217 498.541 209.709 506.823 200.714 506.823Z" fill="#48454D"/>
<path fill-rule="evenodd" clip-rule="evenodd" d="M62 496.823H201V478.823H62V496.823Z" fill="#5C575F"/>
<path fill-rule="evenodd" clip-rule="evenodd" d="M62.9998 478.823C67.4181 478.823 71 482.853 71 487.823C71 492.794 67.4181 496.823 62.9998 496.823C58.5819 496.823 55 492.794 55 487.823C55 482.853 58.5819 478.823 62.9998 478.823Z" fill="#6D6970"/>
<mask id="mask0" mask-type="alpha" maskUnits="userSpaceOnUse" x="38" y="383" width="171" height="114">
<path fill-rule="evenodd" clip-rule="evenodd" d="M38.0277 383.16H208.889V496.486H38.0277V383.16Z" fill="white"/>
</mask>
<g mask="url(#mask0)">
<path fill-rule="evenodd" clip-rule="evenodd" d="M200.751 478.354C205.245 478.354 208.889 482.413 208.889 487.42C208.889 492.428 205.245 496.486 200.751 496.486C196.257 496.486 192.614 492.428 192.614 487.42C192.614 482.413 196.257 478.354 200.751 478.354Z" fill="#6D6970"/>
<path fill-rule="evenodd" clip-rule="evenodd" d="M161.409 383.16H115.307C113.06 383.16 111.238 385.19 111.238 387.693V423.958H42.069C39.822 423.958 38 425.987 38 428.491V455.689C38 458.193 39.822 460.223 42.069 460.223H172.27C174.517 460.223 176.339 458.193 176.339 455.689V443.244C176.339 436.446 175.789 429.661 174.698 422.972L169.416 390.605C168.712 386.294 165.342 383.16 161.409 383.16Z" fill="#0064AB"/>
<path fill-rule="evenodd" clip-rule="evenodd" d="M172.27 460.223H42.069C39.822 460.223 38 458.193 38 455.689V446.623H176.339V455.689C176.339 458.193 174.517 460.223 172.27 460.223Z" fill="#0881D8"/>
</g>
<path fill-rule="evenodd" clip-rule="evenodd" d="M175.58 423.345L170.264 391.213C169.556 386.934 166.164 383.823 162.206 383.823H124V412.367C124 417.141 125.726 421.719 128.798 425.095L135.582 432.551C138.653 435.927 142.82 437.823 147.163 437.823H177C176.778 432.97 176.371 428.13 175.58 423.345Z" fill="#6D6970"/>
<path fill-rule="evenodd" clip-rule="evenodd" d="M133 387.823H129C127.895 387.823 127 388.838 127 390.089V412.038C127 415.644 128.265 419.102 130.515 421.652L131.896 423.216C133.042 424.514 135 423.595 135 421.759V390.089C135 388.838 134.105 387.823 133 387.823Z" fill="#5C575F"/>
<path fill-rule="evenodd" clip-rule="evenodd" d="M170.165 423.507L164.879 391.305C164.527 389.161 162.841 387.602 160.873 387.602H145.275C144.15 387.602 143.239 388.612 143.239 389.857V430.445C143.239 431.69 144.15 432.7 145.275 432.7H168.991C170.194 432.7 171.15 431.532 171.023 430.207C170.797 427.837 170.515 425.633 170.165 423.507Z" fill="#5C575F"/>
<path fill-rule="evenodd" clip-rule="evenodd" d="M263.216 388.149L249.107 403.774V374.073L257.955 374.075C262.059 374.077 265.395 377.775 265.395 382.32C265.395 384.522 264.62 386.592 263.216 388.149ZM257.955 365.056L255.44 365.056C255.434 365.04 255.429 365.024 255.423 365.008L228.061 296.822C226.292 292.414 221.367 290.832 217.743 293.508C214.743 295.722 213.744 300.093 215.431 303.622L245.3 366.106C242.724 367.623 240.964 370.623 240.964 374.073V412.794L238.085 415.983C236.495 417.745 236.495 420.598 238.085 422.36C238.881 423.241 239.922 423.681 240.964 423.681C242.006 423.681 243.048 423.241 243.843 422.36L268.974 394.527C271.916 391.268 273.539 386.931 273.539 382.321C273.539 372.803 266.548 365.059 257.955 365.056Z" fill="#0881D8"/>
<path fill-rule="evenodd" clip-rule="evenodd" d="M570 385.541H562V373.541H570V385.541Z" fill="#5C575F"/>
<path fill-rule="evenodd" clip-rule="evenodd" d="M545.926 385.541H554V364.785C554 361.59 552.724 358.526 550.452 356.268L548.378 354.206C547.486 353.319 546.038 353.319 545.146 354.206L542.67 356.668C541.777 357.555 541.777 358.994 542.67 359.882L544.743 361.943C545.501 362.696 545.926 363.718 545.926 364.782V385.541H545.926Z" fill="#6D6970"/>
<path fill-rule="evenodd" clip-rule="evenodd" d="M486.161 423.541L503 401.011L499.839 398.541L483 421.069L486.161 423.541Z" fill="#9E9DA0"/>
<path fill-rule="evenodd" clip-rule="evenodd" d="M587 333.541H655V405.541H583V381.541L587 333.541Z" fill="#6D6970"/>
<path fill-rule="evenodd" clip-rule="evenodd" d="M603.67 401.541H594.157C592.239 401.541 590.587 400.198 590.208 398.332L587.397 384.491C587.022 382.644 586.912 380.754 587.07 378.876L589.895 345.209C590.07 343.136 591.815 341.541 593.909 341.541H606.972C609.197 341.541 611 343.331 611 345.54V379.56C611 380.877 610.869 382.191 610.609 383.482L607.62 398.325C607.243 400.194 605.59 401.541 603.67 401.541Z" fill="#5C575F"/>
<path fill-rule="evenodd" clip-rule="evenodd" d="M530 385.54L582 381.541L586 405.541H530V385.54Z" fill="#858389"/>
<path fill-rule="evenodd" clip-rule="evenodd" d="M622 377.541H642C644.209 377.541 646 375.7 646 373.429V344.651C646 342.381 644.209 340.541 642 340.541H622C619.791 340.541 618 342.381 618 344.651V373.429C618 375.7 619.791 377.541 622 377.541Z" fill="#5C575F"/>
<mask id="mask1" mask-type="alpha" maskUnits="userSpaceOnUse" x="502" y="333" width="169" height="122">
<path fill-rule="evenodd" clip-rule="evenodd" d="M670.973 333.62H502.11V454.541H670.973V333.62Z" fill="white"/>
</mask>
<g mask="url(#mask1)">
<path fill-rule="evenodd" clip-rule="evenodd" d="M638.83 386.018H626.767V333.62H638.83V386.018Z" fill="#0881D8"/>
<path fill-rule="evenodd" clip-rule="evenodd" d="M666.979 381.988H618.111C616.145 381.988 614.467 383.412 614.144 385.355L611.242 402.804C610.919 404.747 609.241 406.172 607.276 406.172H541.201C539.47 406.172 537.933 405.062 537.386 403.416L531.177 384.743C530.63 383.097 529.093 381.988 527.363 381.988H502.11V442.448H626.768L626.767 406.172H666.979C669.199 406.172 671 404.368 671 402.142V386.018C671 383.793 669.199 381.988 666.979 381.988Z" fill="#0064AB"/>
<path fill-rule="evenodd" clip-rule="evenodd" d="M538.301 454.541H650.894C661.998 454.541 671 445.518 671 434.387C671 423.257 661.998 414.233 650.894 414.233H538.301C527.196 414.233 518.195 423.257 518.195 434.387C518.195 445.518 527.196 454.541 538.301 454.541Z" fill="#48454D"/>
</g>
<path fill-rule="evenodd" clip-rule="evenodd" d="M651 446.541H538V426.541H651V446.541Z" fill="#0064AB"/>
<path fill-rule="evenodd" clip-rule="evenodd" d="M651 422.541C644.373 422.541 639 427.913 639 434.541C639 441.168 644.373 446.541 651 446.541C657.627 446.541 663 441.168 663 434.541C663 427.913 657.627 422.541 651 422.541Z" fill="#0881D8"/>
<path fill-rule="evenodd" clip-rule="evenodd" d="M538 422.541C531.373 422.541 526 427.913 526 434.541C526 441.168 531.373 446.541 538 446.541C544.628 446.541 550 441.168 550 434.541C550 427.913 544.628 422.541 538 422.541Z" fill="#0881D8"/>
<path fill-rule="evenodd" clip-rule="evenodd" d="M478.551 418.541L476 426.239L536.449 446.541L539 438.841L478.551 418.541Z" fill="#0881D8"/>
<path fill-rule="evenodd" clip-rule="evenodd" d="M471.018 446.541H575.981C577.096 446.541 578 445.645 578 444.54V440.541C578 439.436 577.096 438.541 575.981 438.541H471.018C469.904 438.541 469 439.436 469 440.541V444.54C469 445.645 469.904 446.541 471.018 446.541Z" fill="#858389"/>
<path fill-rule="evenodd" clip-rule="evenodd" d="M474 415.596C474 414.461 473.08 413.541 471.944 413.541H468.164C466.688 413.541 465.326 414.331 464.594 415.612L449.333 442.318H406.111C403.841 442.318 402 444.159 402 446.429C402 448.7 403.841 450.541 406.111 450.541H465.778C470.319 450.541 474 446.86 474 442.318V415.596Z" fill="#9E9DA0"/>
<rect width="43" height="43" transform="matrix(-1 0 0 1 450 399)" fill="#F6F6F6"/>
<path fill-rule="evenodd" clip-rule="evenodd" d="M431.713 412H424.287V429H431.713V412ZM441 417.667H433.568V429H441V417.667ZM415 421.441H422.426V429H415V421.441Z" fill="#F9CB5F"/>
<path fill-rule="evenodd" clip-rule="evenodd" d="M481 437.541H473V411.541C473 410.436 473.896 409.541 475 409.541H479C480.105 409.541 481 410.436 481 411.541V437.541Z" fill="#0064AB"/>
<path fill-rule="evenodd" clip-rule="evenodd" d="M582 406.541H663L660.069 412.33C659.383 413.685 657.981 414.541 656.447 414.541H582V406.541Z" fill="#0881D8"/>
<path fill-rule="evenodd" clip-rule="evenodd" d="M586.05 337.541H658.95C661.186 337.541 663 335.75 663 333.541C663 331.332 661.186 329.541 658.95 329.541H586.05C583.814 329.541 582 331.332 582 333.541C582 335.75 583.814 337.541 586.05 337.541Z" fill="#0064AB"/>
<path fill-rule="evenodd" clip-rule="evenodd" d="M497.837 411.749L531.589 367.284C532.259 366.4 532.092 365.135 531.216 364.459L527.967 361.955C527.09 361.279 525.834 361.448 525.163 362.331L491.411 406.797C490.741 407.681 490.908 408.946 491.784 409.621L495.033 412.126C495.91 412.802 497.166 412.634 497.837 411.749Z" fill="#0881D8"/>
<path fill-rule="evenodd" clip-rule="evenodd" d="M560 377.541H572C573.105 377.541 574 376.645 574 375.54V371.541C574 370.436 573.105 369.541 572 369.541H560C558.895 369.541 558 370.436 558 371.541V375.54C558 376.645 558.895 377.541 560 377.541Z" fill="#6D6970"/>
<defs>
<linearGradient id="paint0_linear" x1="610" y1="431.797" x2="610" y2="104.797" gradientUnits="userSpaceOnUse">
<stop stop-color="#808080" stop-opacity="0.25"/>
<stop offset="0.54" stop-color="#808080" stop-opacity="0.12"/>
<stop offset="1" stop-color="#808080" stop-opacity="0.1"/>
</linearGradient>
<linearGradient id="paint1_linear" x1="376.505" y1="98.2975" x2="379.505" y2="98.2975" gradientUnits="userSpaceOnUse">
<stop stop-color="#808080" stop-opacity="0.25"/>
<stop offset="0.54" stop-color="#808080" stop-opacity="0.12"/>
<stop offset="1" stop-color="#808080" stop-opacity="0.1"/>
</linearGradient>
</defs>
</svg>
