<svg width="500" height="60" viewBox="0 0 500 60" fill="none" xmlns="http://www.w3.org/2000/svg">
<g clip-path="url(#clip0)">
<rect width="500" height="60" fill="white"/>
<mask id="mask0" mask-type="alpha" maskUnits="userSpaceOnUse" x="189" y="14" width="211" height="31">
<rect x="189.56" y="14" width="209.56" height="31" fill="#C4C4C4"/>
</mask>
<g mask="url(#mask0)">
<path fill-rule="evenodd" clip-rule="evenodd" d="M262.597 -3.84944C262.484 2.07079 257.771 6.88302 251.317 6.88302C244.783 6.88302 240.095 2.0132 240.095 -4.00602L240.097 -4.2836C240.21 -10.2038 244.922 -15.0161 251.377 -15.0161C257.911 -15.0161 262.599 -10.1462 262.599 -4.12701L262.597 -3.84944ZM216.763 6.70139C215.493 6.70139 214.464 5.67298 214.464 4.40259V-12.4452C214.464 -13.7458 215.493 -14.7742 216.793 -14.7742H217.277C218.396 -14.7742 219.062 -14.2298 219.697 -13.4131L228.681 -1.61663V-12.5359C228.681 -13.8063 229.709 -14.8347 230.979 -14.8347C232.25 -14.8347 233.278 -13.8063 233.278 -12.5359V4.31185C233.278 5.61248 232.25 6.64089 230.949 6.64089H230.798C229.679 6.64089 229.013 6.09644 228.378 5.27976L219.062 -6.94016V4.40259C219.062 5.67298 218.034 6.70139 216.763 6.70139ZM251.378 2.58752C247.693 2.58752 245.059 -0.332017 244.968 -3.87643L244.965 -4.12739C244.965 -7.75707 247.567 -10.7213 251.317 -10.7213C255.002 -10.7213 257.636 -7.80178 257.727 -4.25736L257.73 -4.0064C257.73 -0.376722 255.128 2.58752 251.378 2.58752ZM283.492 6.52006C282.192 6.52006 281.163 5.49165 281.163 4.19101V-12.324C281.163 -13.6247 282.192 -14.6531 283.492 -14.6531H289.421C296.075 -14.6531 300.673 -10.0857 300.673 -4.127L300.671 -3.84643C300.559 2.00578 295.993 6.52006 289.421 6.52006H283.492ZM285.821 2.31568V-10.4487H289.421C293.164 -10.4487 295.711 -7.91032 295.801 -4.26636L295.803 -4.00602C295.803 -0.255347 293.232 2.31568 289.421 2.31568H285.821ZM307.278 6.70171C306.068 6.70171 305.13 5.7338 305.13 4.5239C305.13 4.19118 305.251 3.85846 305.402 3.52574L312.783 -13.1405C313.297 -14.2899 314.235 -14.9856 315.505 -14.9856H315.777C317.048 -14.9856 317.955 -14.2899 318.469 -13.1405L325.911 3.66657C326.025 3.94488 326.091 4.20415 326.091 4.46341C326.091 5.70355 325.124 6.70171 323.883 6.70171C322.795 6.70171 322.069 6.06652 321.645 5.0986L320.224 1.7714H310.907L309.425 5.24984C309.032 6.15726 308.246 6.70171 307.278 6.70171ZM312.632 -2.34236L315.566 -9.32949L318.5 -2.34236H312.632ZM337.416 6.70154C336.115 6.70154 335.087 5.67313 335.087 4.37249V-10.358H330.61C329.43 -10.358 328.462 -11.3259 328.462 -12.5055C328.462 -13.6852 329.43 -14.6531 330.61 -14.6531H344.221C345.401 -14.6531 346.369 -13.6852 346.369 -12.5055C346.369 -11.3259 345.401 -10.358 344.221 -10.358H339.745V4.37249C339.745 5.67313 338.716 6.70154 337.416 6.70154ZM348.709 4.5239C348.709 5.7338 349.647 6.70171 350.857 6.70171C351.825 6.70171 352.611 6.15726 353.004 5.24984L354.486 1.7714H363.803L365.224 5.0986C365.648 6.06652 366.374 6.70171 367.462 6.70171C368.703 6.70171 369.671 5.70355 369.671 4.46341C369.671 4.20415 369.604 3.94488 369.49 3.66657L362.048 -13.1405C361.534 -14.2899 360.627 -14.9856 359.356 -14.9856H359.084C357.814 -14.9856 356.876 -14.2899 356.362 -13.1405L348.981 3.52574C348.83 3.85846 348.709 4.19118 348.709 4.5239ZM359.144 -9.32949L356.21 -2.34236H362.078L359.144 -9.32949ZM193.28 39.6948C193.28 40.9047 194.218 41.8726 195.428 41.8726C196.396 41.8726 197.182 41.3282 197.575 40.4208L199.057 36.9423H208.373L209.795 40.2695C210.219 41.2374 210.944 41.8726 212.033 41.8726C213.274 41.8726 214.241 40.8745 214.241 39.6343C214.241 39.3319 214.151 39.0294 213.999 38.6967L206.619 22.0304C206.105 20.881 205.197 20.1853 203.927 20.1853H203.655C202.384 20.1853 201.447 20.881 200.933 22.0304L193.552 38.6967C193.401 39.0294 193.28 39.3621 193.28 39.6948ZM203.715 25.8417L200.781 32.8289H206.649L203.715 25.8417ZM226.745 42.024H227.047C228.318 42.024 229.195 41.3283 229.679 40.1789L236.605 23.6034C236.726 23.3312 236.847 22.9379 236.847 22.575C236.847 21.3046 235.819 20.3367 234.549 20.3367C233.429 20.3367 232.613 21.0626 232.31 21.8188L226.957 35.6721L221.663 21.97C221.3 21.0324 220.514 20.3367 219.304 20.3367C218.003 20.3367 216.975 21.3348 216.975 22.6355C216.975 23.0287 217.096 23.3916 217.247 23.7546L224.113 40.1789C224.597 41.3283 225.474 42.024 226.745 42.024ZM241.668 41.8726C240.458 41.8726 239.521 40.9047 239.521 39.6948C239.521 39.3621 239.642 39.0294 239.793 38.6967L247.173 22.0304C247.688 20.881 248.625 20.1853 249.896 20.1853H250.168C251.438 20.1853 252.346 20.881 252.86 22.0304L260.24 38.6967C260.391 39.0294 260.482 39.3319 260.482 39.6343C260.482 40.8745 259.514 41.8726 258.274 41.8726C257.185 41.8726 256.459 41.2374 256.036 40.2695L254.614 36.9423H245.298L243.816 40.4208C243.423 41.3282 242.636 41.8726 241.668 41.8726ZM247.022 32.8289L249.956 25.8417L252.89 32.8289H247.022ZM269.355 41.8728C268.055 41.8728 267.026 40.8444 267.026 39.5437V22.6657C267.026 21.3651 268.055 20.3367 269.355 20.3367C270.656 20.3367 271.685 21.3651 271.685 22.6657V39.5437C271.685 40.8444 270.656 41.8728 269.355 41.8728ZM279.651 39.3622C279.651 40.6629 280.679 41.6913 281.98 41.6913H292.93C294.109 41.6913 295.047 40.7536 295.047 39.574C295.047 38.3943 294.109 37.4566 292.93 37.4566H284.309V22.6657C284.309 21.3651 283.281 20.3367 281.98 20.3367C280.679 20.3367 279.651 21.3651 279.651 22.6657V39.3622ZM301.743 41.8726C300.533 41.8726 299.595 40.9047 299.595 39.6948C299.595 39.3621 299.716 39.0294 299.868 38.6967L307.248 22.0304C307.762 20.881 308.7 20.1853 309.97 20.1853H310.242C311.513 20.1853 312.42 20.881 312.934 22.0304L320.315 38.6967C320.466 39.0294 320.557 39.3319 320.557 39.6343C320.557 40.8745 319.589 41.8726 318.349 41.8726C317.26 41.8726 316.534 41.2374 316.11 40.2695L314.689 36.9423H305.373L303.89 40.4208C303.497 41.3282 302.711 41.8726 301.743 41.8726ZM307.096 32.8289L310.03 25.8417L312.964 32.8289H307.096ZM329.219 41.6914C327.918 41.6914 326.89 40.663 326.89 39.3624V22.8473C326.89 21.5467 327.918 20.5183 329.219 20.5183H336.72C339.14 20.5183 341.045 21.1837 342.255 22.3936C343.223 23.3616 343.707 24.5412 343.707 25.9931L343.703 26.2745C343.627 28.5258 342.389 29.8005 340.924 30.6209C343.374 31.5586 344.887 32.9802 344.887 35.8235L344.884 36.0791C344.78 39.8207 341.66 41.6914 336.962 41.6914H329.219ZM331.426 29.078V24.6014H336.024C337.99 24.6014 339.079 25.3879 339.079 26.7792V26.8397C339.079 28.4126 337.778 29.078 335.722 29.078H331.426ZM331.426 32.9498V37.6079H336.962C339.019 37.6079 340.259 36.8819 340.259 35.3091L340.256 35.1246C340.195 33.7761 339.13 32.9498 336.811 32.9498H331.426ZM351.401 39.3622C351.401 40.6629 352.429 41.6913 353.73 41.6913H364.68C365.859 41.6913 366.797 40.7536 366.797 39.574C366.797 38.3943 365.859 37.4566 364.68 37.4566H356.059V22.6657C356.059 21.3651 355.031 20.3367 353.73 20.3367C352.429 20.3367 351.401 21.3651 351.401 22.6657V39.3622ZM372.797 39.3624C372.797 40.663 373.826 41.6914 375.126 41.6914H387.013C388.163 41.6914 389.1 40.784 389.1 39.6346C389.1 38.4852 388.163 37.5476 387.013 37.5476H377.425V33.1012H385.501C386.65 33.1012 387.588 32.1938 387.588 31.0444C387.588 29.895 386.65 28.9573 385.501 28.9573H377.425V24.6622H386.862C388.012 24.6622 388.949 23.7548 388.949 22.6054C388.949 21.456 388.012 20.5183 386.862 20.5183H375.126C373.826 20.5183 372.797 21.5467 372.797 22.8473V39.3624Z" fill="#5A5A5A"/>
</g>
<mask id="mask1" mask-type="alpha" maskUnits="userSpaceOnUse" x="-6" y="14" width="211" height="31">
<rect x="-5.12" y="14" width="209.56" height="31" fill="#C4C4C4"/>
</mask>
<g mask="url(#mask1)">
<path fill-rule="evenodd" clip-rule="evenodd" d="M69.1238 31.3666C69.0113 37.2869 64.3006 42.0991 57.849 42.0991C51.3187 42.0991 46.6326 37.2293 46.6326 31.21L46.6346 30.9325C46.7472 25.0122 51.4578 20.2 57.9095 20.2C64.4398 20.2 69.1259 25.0698 69.1259 31.0891L69.1238 31.3666ZM23.312 41.9173C22.0422 41.9173 21.0143 40.8889 21.0143 39.6185V22.7707C21.0143 21.4701 22.0422 20.4417 23.3422 20.4417H23.8259C24.9446 20.4417 25.6097 20.9861 26.2446 21.8028L35.2238 33.5993V22.68C35.2238 21.4096 36.2517 20.3812 37.5215 20.3812C38.7913 20.3812 39.8192 21.4096 39.8192 22.68V39.5278C39.8192 40.8284 38.7913 41.8568 37.4912 41.8568H37.3401C36.2215 41.8568 35.5563 41.3124 34.9214 40.4957L25.6097 28.2758V39.6185C25.6097 40.8889 24.5818 41.9173 23.312 41.9173ZM57.9101 37.8036C54.227 37.8036 51.5944 34.884 51.5031 31.3396L51.5007 31.0887C51.5007 27.459 54.1007 24.4948 57.8496 24.4948C61.5327 24.4948 64.1653 27.4143 64.2566 30.9587L64.259 31.2097C64.259 34.8393 61.659 37.8036 57.9101 37.8036ZM90.0095 41.736C88.7094 41.736 87.6815 40.7076 87.6815 39.4069V22.8919C87.6815 21.5912 88.7094 20.5628 90.0095 20.5628H95.9351C102.586 20.5628 107.182 25.1302 107.182 31.0889L107.18 31.3695C107.068 37.2217 102.504 41.736 95.9351 41.736H90.0095ZM92.3374 37.5317V24.7674H95.9352C99.6765 24.7674 102.222 27.3057 102.312 30.9497L102.314 31.21C102.314 34.9607 99.7445 37.5317 95.9352 37.5317H92.3374ZM113.784 41.9178C112.574 41.9178 111.637 40.9499 111.637 39.74C111.637 39.4072 111.758 39.0745 111.909 38.7418L119.286 22.0755C119.8 20.9261 120.737 20.2304 122.007 20.2304H122.279C123.549 20.2304 124.456 20.9261 124.97 22.0755L132.408 38.8826C132.522 39.1609 132.589 39.4202 132.589 39.6795C132.589 40.9196 131.621 41.9178 130.382 41.9178C129.293 41.9178 128.568 41.2826 128.144 40.3147L126.723 36.9875H117.412L115.93 40.4659C115.537 41.3733 114.751 41.9178 113.784 41.9178ZM119.135 32.8737L122.068 25.8866L125 32.8737H119.135ZM143.907 41.9174C142.607 41.9174 141.579 40.889 141.579 39.5884V24.858H137.105C135.926 24.858 134.958 23.89 134.958 22.7104C134.958 21.5308 135.926 20.5628 137.105 20.5628H150.71C151.889 20.5628 152.856 21.5308 152.856 22.7104C152.856 23.89 151.889 24.858 150.71 24.858H146.235V39.5884C146.235 40.889 145.207 41.9174 143.907 41.9174ZM155.195 39.74C155.195 40.9499 156.133 41.9178 157.342 41.9178C158.309 41.9178 159.095 41.3733 159.488 40.4659L160.97 36.9875H170.282L171.703 40.3147C172.126 41.2826 172.851 41.9178 173.94 41.9178C175.179 41.9178 176.147 40.9196 176.147 39.6795C176.147 39.4202 176.08 39.1609 175.966 38.8826L168.528 22.0755C168.014 20.9261 167.107 20.2304 165.837 20.2304H165.565C164.296 20.2304 163.358 20.9261 162.844 22.0755L155.467 38.7418C155.316 39.0745 155.195 39.4072 155.195 39.74ZM165.626 25.8866L162.693 32.8737H168.558L165.626 25.8866ZM-0.160034 74.9109C-0.160034 76.1208 0.777189 77.0887 1.98651 77.0887C2.95396 77.0887 3.74002 76.5442 4.13305 75.6368L5.61447 72.1584H14.9262L16.3472 75.4856C16.7704 76.4535 17.496 77.0887 18.5844 77.0887C19.824 77.0887 20.7914 76.0905 20.7914 74.8504C20.7914 74.5479 20.7007 74.2454 20.5496 73.9127L13.1727 57.2464C12.6588 56.097 11.7518 55.4014 10.482 55.4014H10.2099C8.9401 55.4014 8.00287 56.097 7.48891 57.2464L0.112063 73.9127C-0.0391022 74.2454 -0.160034 74.5782 -0.160034 74.9109ZM10.2705 61.0578L7.33794 68.0449H13.2031L10.2705 61.0578ZM33.2889 77.2401H33.5912C34.861 77.2401 35.7378 76.5444 36.2215 75.395L43.1448 58.8194C43.2658 58.5472 43.3867 58.154 43.3867 57.791C43.3867 56.5206 42.3588 55.5527 41.089 55.5527C39.9704 55.5527 39.1541 56.2787 38.8518 57.0348L33.5005 70.8881L28.2097 57.1861C27.847 56.2484 27.0609 55.5527 25.8516 55.5527C24.5516 55.5527 23.5236 56.5509 23.5236 57.8515C23.5236 58.2447 23.6446 58.6077 23.7957 58.9707L30.6586 75.395C31.1423 76.5444 32.0191 77.2401 33.2889 77.2401ZM48.2053 77.0887C46.9959 77.0887 46.0587 76.1208 46.0587 74.9109C46.0587 74.5782 46.1797 74.2454 46.3308 73.9127L53.7077 57.2464C54.2216 56.097 55.1589 55.4014 56.4286 55.4014H56.7007C57.9705 55.4014 58.8775 56.097 59.3915 57.2464L66.7683 73.9127C66.9195 74.2454 67.0102 74.5479 67.0102 74.8504C67.0102 76.0905 66.0427 77.0887 64.8032 77.0887C63.7148 77.0887 62.9892 76.4535 62.5659 75.4856L61.145 72.1584H51.8332L50.3518 75.6368C49.9588 76.5442 49.1727 77.0887 48.2053 77.0887ZM53.5564 68.0449L56.489 61.0578L59.4216 68.0449H53.5564ZM75.8793 77.0888C74.5793 77.0888 73.5514 76.0604 73.5514 74.7598V57.8818C73.5514 56.5811 74.5793 55.5527 75.8793 55.5527C77.1794 55.5527 78.2073 56.5811 78.2073 57.8818V74.7598C78.2073 76.0604 77.1794 77.0888 75.8793 77.0888ZM86.17 74.5783C86.17 75.8789 87.1979 76.9073 88.4979 76.9073H99.4423C100.621 76.9073 101.559 75.9697 101.559 74.79C101.559 73.6104 100.621 72.6727 99.4423 72.6727H90.8259V57.8818C90.8259 56.5811 89.7979 55.5527 88.4979 55.5527C87.1979 55.5527 86.17 56.5811 86.17 57.8818V74.5783ZM108.251 77.0887C107.042 77.0887 106.105 76.1208 106.105 74.9109C106.105 74.5782 106.226 74.2454 106.377 73.9127L113.754 57.2464C114.268 56.097 115.205 55.4014 116.475 55.4014H116.747C118.017 55.4014 118.924 56.097 119.438 57.2464L126.814 73.9127C126.966 74.2454 127.056 74.5479 127.056 74.8504C127.056 76.0905 126.089 77.0887 124.849 77.0887C123.761 77.0887 123.035 76.4535 122.612 75.4856L121.191 72.1584H111.879L110.398 75.6368C110.005 76.5442 109.219 77.0887 108.251 77.0887ZM113.602 68.0449L116.535 61.0578L119.468 68.0449H113.602ZM135.714 76.9075C134.414 76.9075 133.386 75.8791 133.386 74.5785V58.0634C133.386 56.7628 134.414 55.7344 135.714 55.7344H143.212C145.63 55.7344 147.535 56.3998 148.744 57.6097C149.712 58.5776 150.196 59.7573 150.196 61.2091L150.192 61.4906C150.116 63.7419 148.879 65.0165 147.414 65.837C149.863 66.7746 151.375 68.1963 151.375 71.0395L151.372 71.2952C151.268 75.0367 148.15 76.9075 143.454 76.9075H135.714ZM137.921 64.2941V59.8175H142.516C144.481 59.8175 145.57 60.6039 145.57 61.9953V62.0558C145.57 63.6287 144.27 64.2941 142.214 64.2941H137.921ZM137.921 68.1659V72.8239H143.454C145.509 72.8239 146.749 72.098 146.749 70.5251L146.746 70.3406C146.686 68.9922 145.621 68.1659 143.302 68.1659H137.921ZM157.886 74.5783C157.886 75.8789 158.914 76.9073 160.214 76.9073H171.158C172.337 76.9073 173.275 75.9697 173.275 74.79C173.275 73.6104 172.337 72.6727 171.158 72.6727H162.542V57.8818C162.542 56.5811 161.514 55.5527 160.214 55.5527C158.914 55.5527 157.886 56.5811 157.886 57.8818V74.5783ZM179.272 74.5785C179.272 75.8791 180.3 76.9075 181.6 76.9075H193.482C194.63 76.9075 195.568 76.0001 195.568 74.8507C195.568 73.7013 194.63 72.7636 193.482 72.7636H183.898V68.3173H191.97C193.119 68.3173 194.056 67.4098 194.056 66.2604C194.056 65.111 193.119 64.1734 191.97 64.1734H183.898V59.8783H193.33C194.479 59.8783 195.416 58.9708 195.416 57.8214C195.416 56.672 194.479 55.7344 193.33 55.7344H181.6C180.3 55.7344 179.272 56.7628 179.272 58.0634V74.5785Z" fill="#5A5A5A"/>
</g>
<path fill-rule="evenodd" clip-rule="evenodd" d="M458.328 30.428H455.266V25.8363H458.328V30.428Z" fill="#5C575F"/>
<path fill-rule="evenodd" clip-rule="evenodd" d="M449.116 30.4281H452.205V22.486C452.205 21.2636 451.717 20.0913 450.848 19.2271L450.054 18.4381C449.713 18.0986 449.159 18.0986 448.817 18.4381L447.87 19.38C447.528 19.7196 447.528 20.2703 447.87 20.6099L448.663 21.3988C448.953 21.6869 449.116 22.0777 449.116 22.485V30.4281H449.116Z" fill="#6D6970"/>
<path fill-rule="evenodd" clip-rule="evenodd" d="M426.247 44.9687L432.691 36.3478L431.481 35.4026L425.038 44.0231L426.247 44.9687Z" fill="#9E9DA0"/>
<path fill-rule="evenodd" clip-rule="evenodd" d="M464.833 10.5306H490.853V38.0811H463.302V28.8976L464.833 10.5306Z" fill="#6D6970"/>
<path fill-rule="evenodd" clip-rule="evenodd" d="M471.211 36.5505H467.571C466.837 36.5505 466.205 36.0367 466.06 35.3226L464.985 30.0267C464.841 29.32 464.799 28.5966 464.859 27.8781L465.941 14.9954C466.007 14.2021 466.675 13.5918 467.477 13.5918H472.475C473.326 13.5918 474.016 14.277 474.016 15.1223V28.1397C474.016 28.6436 473.966 29.1464 473.867 29.6405L472.723 35.32C472.579 36.0353 471.946 36.5505 471.211 36.5505Z" fill="#5C575F"/>
<path fill-rule="evenodd" clip-rule="evenodd" d="M443.022 30.428L462.919 28.8975L464.45 38.0809H443.022V30.428Z" fill="#858389"/>
<path fill-rule="evenodd" clip-rule="evenodd" d="M478.225 27.3667H485.878C486.723 27.3667 487.409 26.6623 487.409 25.7935V14.7819C487.409 13.9131 486.723 13.2089 485.878 13.2089H478.225C477.38 13.2089 476.695 13.9131 476.695 14.7819V25.7935C476.695 26.6623 477.38 27.3667 478.225 27.3667Z" fill="#5C575F"/>
<mask id="mask2" mask-type="alpha" maskUnits="userSpaceOnUse" x="432" y="10" width="65" height="47">
<path fill-rule="evenodd" clip-rule="evenodd" d="M496.964 10.5605H432.35V56.8303H496.964V10.5605Z" fill="white"/>
</mask>
<g mask="url(#mask2)">
<path fill-rule="evenodd" clip-rule="evenodd" d="M484.665 30.6107H480.049V10.5605H484.665V30.6107Z" fill="#0881D8"/>
<path fill-rule="evenodd" clip-rule="evenodd" d="M495.436 29.0687H476.737C475.984 29.0687 475.343 29.6137 475.219 30.3573L474.108 37.0339C473.985 37.7775 473.343 38.3224 472.591 38.3224H447.308C446.645 38.3224 446.057 37.8977 445.848 37.2678L443.472 30.123C443.263 29.4931 442.675 29.0685 442.012 29.0685H432.35V52.2033H480.049L480.049 38.3226H495.436C496.285 38.3226 496.974 37.6321 496.974 36.7804V30.6109C496.974 29.7592 496.285 29.0687 495.436 29.0687Z" fill="#0064AB"/>
<path fill-rule="evenodd" clip-rule="evenodd" d="M446.198 56.8306H489.281C493.53 56.8306 496.974 53.378 496.974 49.1189C496.974 44.86 493.53 41.4073 489.281 41.4073H446.198C441.949 41.4073 438.504 44.86 438.504 49.1189C438.504 53.378 441.949 56.8306 446.198 56.8306Z" fill="#48454D"/>
</g>
<path fill-rule="evenodd" clip-rule="evenodd" d="M489.322 53.7693H446.083V46.1165H489.322V53.7693Z" fill="#0064AB"/>
<path fill-rule="evenodd" clip-rule="evenodd" d="M489.322 44.5859C486.786 44.5859 484.73 46.6418 484.73 49.1777C484.73 51.7136 486.786 53.7694 489.322 53.7694C491.858 53.7694 493.914 51.7136 493.914 49.1777C493.914 46.6418 491.858 44.5859 489.322 44.5859Z" fill="#0881D8"/>
<path fill-rule="evenodd" clip-rule="evenodd" d="M446.083 44.5859C443.547 44.5859 441.491 46.6418 441.491 49.1777C441.491 51.7136 443.547 53.7694 446.083 53.7694C448.619 53.7694 450.675 51.7136 450.675 49.1777C450.675 46.6418 448.619 44.5859 446.083 44.5859Z" fill="#0881D8"/>
<path fill-rule="evenodd" clip-rule="evenodd" d="M423.335 43.0553L422.359 46.0011L445.49 53.7694L446.466 50.8233L423.335 43.0553Z" fill="#0881D8"/>
<path fill-rule="evenodd" clip-rule="evenodd" d="M420.453 53.7694H460.617C461.043 53.7694 461.389 53.4268 461.389 53.0041V51.4736C461.389 51.0509 461.043 50.7083 460.617 50.7083H420.453C420.027 50.7083 419.681 51.0509 419.681 51.4736V53.0041C419.681 53.4268 420.027 53.7694 420.453 53.7694Z" fill="#858389"/>
<path fill-rule="evenodd" clip-rule="evenodd" d="M421.594 41.9288C421.594 41.4945 421.242 41.1422 420.808 41.1422H419.361C418.796 41.1422 418.275 41.4446 417.995 41.9348L412.156 52.1538H395.617C394.748 52.1538 394.044 52.8582 394.044 53.7269C394.044 54.5956 394.748 55.3001 395.617 55.3001H418.448C420.186 55.3001 421.594 53.8916 421.594 52.1538V41.9288Z" fill="#9E9DA0"/>
<rect width="16.4537" height="16.4537" transform="matrix(-1 0 0 1 412.41 35.5784)" fill="#F6F6F6"/>
<path fill-rule="evenodd" clip-rule="evenodd" d="M405.413 40.5526H402.571V47.0576H405.413V40.5526ZM408.966 42.721H406.123V47.0576H408.966V42.721ZM399.018 44.165H401.859V47.0575H399.018V44.165Z" fill="#F9CB5F"/>
<path fill-rule="evenodd" clip-rule="evenodd" d="M424.272 50.3257H421.211V40.377C421.211 39.9543 421.554 39.6117 421.976 39.6117H423.507C423.93 39.6117 424.272 39.9543 424.272 40.377V50.3257Z" fill="#0064AB"/>
<path fill-rule="evenodd" clip-rule="evenodd" d="M462.919 38.4636H493.914L492.792 40.6788C492.53 41.1973 491.993 41.5248 491.406 41.5248H462.919V38.4636Z" fill="#0881D8"/>
<path fill-rule="evenodd" clip-rule="evenodd" d="M464.469 12.0612H492.364C493.22 12.0612 493.914 11.3759 493.914 10.5307C493.914 9.6854 493.22 9 492.364 9H464.469C463.613 9 462.919 9.6854 462.919 10.5307C462.919 11.3759 463.613 12.0612 464.469 12.0612Z" fill="#0064AB"/>
<path fill-rule="evenodd" clip-rule="evenodd" d="M430.715 40.4568L443.63 23.4422C443.887 23.104 443.823 22.6201 443.487 22.3614L442.244 21.4033C441.908 21.1446 441.428 21.2091 441.171 21.5471L428.256 38.5619C428 38.9001 428.064 39.384 428.399 39.6425L429.642 40.6008C429.978 40.8595 430.458 40.7952 430.715 40.4568Z" fill="#0881D8"/>
<path fill-rule="evenodd" clip-rule="evenodd" d="M454.501 27.3668H459.093C459.516 27.3668 459.858 27.0242 459.858 26.6015V25.071C459.858 24.6483 459.516 24.3057 459.093 24.3057H454.501C454.079 24.3057 453.736 24.6483 453.736 25.071V26.6015C453.736 27.0242 454.079 27.3668 454.501 27.3668Z" fill="#6D6970"/>
<path opacity="0.1" d="M414 24C417.866 24 421 20.866 421 17C421 13.134 417.866 10 414 10C410.134 10 407 13.134 407 17C407 20.866 410.134 24 414 24Z" fill="#0064AB"/>
<path opacity="0.1" d="M429 40C431.761 40 434 37.5376 434 34.5C434 31.4624 431.761 29 429 29C426.239 29 424 31.4624 424 34.5C424 37.5376 426.239 40 429 40Z" fill="#0064AB"/>
<path opacity="0.1" d="M439 14C441.761 14 444 11.7614 444 9C444 6.23858 441.761 4 439 4C436.239 4 434 6.23858 434 9C434 11.7614 436.239 14 439 14Z" fill="#0064AB"/>
<path opacity="0.1" d="M45.8892 14.0654C42.4319 15.7954 41.0316 20.0005 42.7616 23.4578C44.4916 26.9151 48.6967 28.3154 52.154 26.5855C55.6113 24.8555 57.0116 20.6503 55.2817 17.193C53.5517 13.7357 49.3466 12.3354 45.8892 14.0654Z" fill="#0064AB"/>
<path opacity="0.1" d="M14.3152 7.46895C11.8457 8.70464 10.9456 11.9085 12.3049 14.625C13.6642 17.3414 16.768 18.5418 19.2375 17.3062C21.707 16.0705 22.6071 12.8666 21.2478 10.1501C19.8885 7.43365 16.7847 6.23325 14.3152 7.46895Z" fill="#0064AB"/>
<path opacity="0.1" d="M17.0069 45.1954C14.5374 46.4311 13.5372 49.4348 14.7729 51.9043C16.0086 54.3738 19.0123 55.374 21.4818 54.1383C23.9513 52.9026 24.9515 49.8989 23.7158 47.4294C22.4801 44.9599 19.4765 43.9597 17.0069 45.1954Z" fill="#0064AB"/>
</g>
<defs>
<clipPath id="clip0">
<rect width="500" height="60" fill="white"/>
</clipPath>
</defs>
</svg>
