<svg width="530" height="466" viewBox="0 0 530 466" fill="none" xmlns="http://www.w3.org/2000/svg">
<path opacity="0.1" d="M175.393 231.283C192.798 224.429 220.121 223.032 244.99 223.581C323.108 225.293 393.622 241.949 454.613 260.792C476.696 267.615 498.434 274.968 512.768 284.361C541.945 303.484 533.29 329.973 492.72 345.726C478.914 351.087 462.182 355.21 445.001 358.834C414.448 365.312 381.501 370.509 346.83 372.006C322.11 373.059 297.082 372.201 272.506 370.728C203.837 366.6 136.439 357.531 79.9443 341.943C55.1648 335.119 31.8112 326.634 21.6102 315.588C11.4093 304.542 17.9307 290.556 43.2337 284.017C53.7039 281.317 66.2084 280.094 78.4585 278.951C96.4872 277.264 114.805 275.597 131.074 272.167C147.881 268.623 167.779 261.77 164.454 253.929C160.869 245.513 158.007 238.126 175.393 231.283Z" fill="#0064AB"/>
<path opacity="0.1" d="M273.908 20.0857L272 130.447C272 130.447 341.08 130.447 399.853 149.473L401 37.9533C401 37.9533 306.731 15.5215 273.908 20.0857Z" fill="black"/>
<path d="M272.908 18.0857L271 128.447C271 128.447 340.08 128.447 398.853 147.473L400 35.9533C400 35.9533 305.731 13.5215 272.908 18.0857Z" fill="#F6F6F6"/>
<path opacity="0.1" d="M244.106 19.085L246 129.447C246 129.447 177.455 129.447 119.138 148.473L118 36.9826C118 36.9826 211.539 14.5207 244.106 19.085Z" fill="black"/>
<path d="M245.106 18.085L247 128.447C247 128.447 178.455 128.447 120.138 147.473L119 35.9826C119 35.9826 212.539 13.5207 245.106 18.085Z" fill="#F6F6F6"/>
<path opacity="0.1" d="M416 46.473V155.838C416 155.838 438.221 153.172 484.857 211.473L489 102.108C489 102.108 440.458 49.1435 416 46.473Z" fill="black"/>
<path d="M414 45.473V154.838C414 154.838 436.526 152.172 483.8 210.473L488 101.108C488 101.108 438.793 48.1435 414 45.473Z" fill="#F6F6F6"/>
<path opacity="0.1" d="M107 42.473V151.177C107 151.177 83.8638 148.527 35.3085 206.473L31 97.7742C31 97.7742 81.5347 45.1322 107 42.473Z" fill="black"/>
<path d="M108 41.473V150.177C108 150.177 84.8638 147.527 36.3085 205.473L32 96.7742C32 96.7742 82.5347 44.1322 108 41.473Z" fill="#F6F6F6"/>
<path opacity="0.1" d="M106 208.473C115.389 208.473 123 207.354 123 205.973C123 204.592 115.389 203.473 106 203.473C96.6112 203.473 89 204.592 89 205.973C89 207.354 96.6112 208.473 106 208.473Z" fill="#CFE2EF"/>
<path opacity="0.1" d="M154 230.473C163.389 230.473 171 229.354 171 227.973C171 226.592 163.389 225.473 154 225.473C144.611 225.473 137 226.592 137 227.973C137 229.354 144.611 230.473 154 230.473Z" fill="#CFE2EF"/>
<path opacity="0.1" d="M83 254.473C92.3888 254.473 100 253.354 100 251.973C100 250.592 92.3888 249.473 83 249.473C73.6112 249.473 66 250.592 66 251.973C66 253.354 73.6112 254.473 83 254.473Z" fill="#CFE2EF"/>
<path opacity="0.1" d="M450.5 307.473C460.165 307.473 468 306.354 468 304.973C468 303.592 460.165 302.473 450.5 302.473C440.835 302.473 433 303.592 433 304.973C433 306.354 440.835 307.473 450.5 307.473Z" fill="#0064AB"/>
<path opacity="0.1" d="M253.5 247.473C259.851 247.473 265 246.801 265 245.973C265 245.145 259.851 244.473 253.5 244.473C247.149 244.473 242 245.145 242 245.973C242 246.801 247.149 247.473 253.5 247.473Z" fill="#0064AB"/>
<path opacity="0.1" d="M417.5 181.473C423.851 181.473 429 180.801 429 179.973C429 179.145 423.851 178.473 417.5 178.473C411.149 178.473 406 179.145 406 179.973C406 180.801 411.149 181.473 417.5 181.473Z" fill="#0064AB"/>
<path opacity="0.1" d="M328.5 278.473C334.851 278.473 340 277.801 340 276.973C340 276.145 334.851 275.473 328.5 275.473C322.149 275.473 317 276.145 317 276.973C317 277.801 322.149 278.473 328.5 278.473Z" fill="#0064AB"/>
<path opacity="0.1" d="M229.5 270.473C235.851 270.473 241 269.801 241 268.973C241 268.145 235.851 267.473 229.5 267.473C223.149 267.473 218 268.145 218 268.973C218 269.801 223.149 270.473 229.5 270.473Z" fill="#0064AB"/>
<path opacity="0.1" d="M136.5 266.473C142.851 266.473 148 265.801 148 264.973C148 264.145 142.851 263.473 136.5 263.473C130.149 263.473 125 264.145 125 264.973C125 265.801 130.149 266.473 136.5 266.473Z" fill="#CFE2EF"/>
<path opacity="0.1" d="M112.5 289.473C118.851 289.473 124 288.801 124 287.973C124 287.145 118.851 286.473 112.5 286.473C106.149 286.473 101 287.145 101 287.973C101 288.801 106.149 289.473 112.5 289.473Z" fill="#CFE2EF"/>
<path d="M72 244.334C72 244.334 77.3789 244.171 78.9946 243.035C80.6103 241.899 87.2637 240.541 87.6651 242.364C88.0665 244.186 95.7435 251.422 89.6721 251.471C83.6008 251.521 75.5726 250.538 73.9519 249.57C72.3312 248.602 72 244.334 72 244.334Z" fill="#A8A8A8"/>
<path opacity="0.2" d="M89.7813 250.856C83.7154 250.905 75.6827 249.946 74.0671 248.997C72.8379 248.27 72.3462 245.674 72.1806 244.473H72C72 244.473 72.3412 248.658 73.9567 249.607C75.5723 250.556 83.605 251.515 89.6759 251.472C91.427 251.472 92.029 250.856 91.9989 249.965C91.7531 250.522 91.0858 250.856 89.7813 250.856Z" fill="black"/>
<path d="M413 174.476C413 174.476 416.492 174.36 417.546 173.565C418.601 172.769 422.919 171.822 423.18 173.096C423.442 174.37 428.434 179.436 424.487 179.472C420.539 179.507 415.323 178.817 414.273 178.142C413.223 177.467 413 174.476 413 174.476Z" fill="#A8A8A8"/>
<path opacity="0.2" d="M424.559 179.034C420.616 179.064 415.395 178.378 414.345 177.703C413.542 177.199 413.223 175.33 413.119 174.473H413C413 174.473 413.223 177.461 414.273 178.142C415.323 178.822 420.545 179.502 424.488 179.472C425.628 179.472 426.023 179.034 425.999 178.394C425.842 178.787 425.41 179.024 424.559 179.034Z" fill="black"/>
<path opacity="0.1" d="M43 22.473C49.0751 22.473 54 17.5481 54 11.473C54 5.39786 49.0751 0.472992 43 0.472992C36.9249 0.472992 32 5.39786 32 11.473C32 17.5481 36.9249 22.473 43 22.473Z" fill="#0064AB"/>
<path opacity="0.1" d="M488 60.473C494.075 60.473 499 55.5481 499 49.473C499 43.3979 494.075 38.473 488 38.473C481.925 38.473 477 43.3979 477 49.473C477 55.5481 481.925 60.473 488 60.473Z" fill="#0064AB"/>
<path opacity="0.1" d="M35.5 61.473C39.6421 61.473 43 57.8913 43 53.473C43 49.0547 39.6421 45.473 35.5 45.473C31.3579 45.473 28 49.0547 28 53.473C28 57.8913 31.3579 61.473 35.5 61.473Z" fill="#0064AB"/>
<path opacity="0.1" d="M116 17.473C120.418 17.473 124 13.8913 124 9.47299C124 5.05471 120.418 1.47299 116 1.47299C111.582 1.47299 108 5.05471 108 9.47299C108 13.8913 111.582 17.473 116 17.473Z" fill="#0064AB"/>
<path opacity="0.1" d="M425 25.473C429.418 25.473 433 21.8913 433 17.473C433 13.0547 429.418 9.47299 425 9.47299C420.582 9.47299 417 13.0547 417 17.473C417 21.8913 420.582 25.473 425 25.473Z" fill="#0064AB"/>
<path d="M438 296.62C438 296.62 443.645 296.438 445.343 295.19C447.042 293.942 454.027 292.449 454.45 294.451C454.874 296.453 462.928 304.419 456.557 304.471C450.187 304.523 441.75 303.431 440.056 302.391C438.363 301.351 438 296.62 438 296.62Z" fill="#A8A8A8"/>
<path opacity="0.2" d="M456.675 303.77C450.299 303.823 441.866 302.71 440.167 301.649C438.877 300.822 438.358 297.847 438.186 296.473H438C438 296.473 438.358 301.246 440.057 302.349C441.755 303.452 450.188 304.534 456.559 304.47C458.399 304.47 459.034 303.765 458.999 302.747C458.747 303.373 458.041 303.76 456.675 303.77Z" fill="black"/>
<path opacity="0.1" d="M406 258.473C464.542 258.473 512 254.667 512 249.973C512 245.279 464.542 241.473 406 241.473C347.458 241.473 300 245.279 300 249.973C300 254.667 347.458 258.473 406 258.473Z" fill="#0064AB"/>
<path opacity="0.1" d="M123 341.473C175.467 341.473 218 336.772 218 330.973C218 325.174 175.467 320.473 123 320.473C70.5329 320.473 28 325.174 28 330.973C28 336.772 70.5329 341.473 123 341.473Z" fill="#0064AB"/>
<path opacity="0.1" d="M342 329.473C349.732 329.473 356 328.354 356 326.973C356 325.592 349.732 324.473 342 324.473C334.268 324.473 328 325.592 328 326.973C328 328.354 334.268 329.473 342 329.473Z" fill="#0064AB"/>
<path d="M412.5 333.473C423.822 333.473 433 331.906 433 329.973C433 328.04 423.822 326.473 412.5 326.473C401.178 326.473 392 328.04 392 329.973C392 331.906 401.178 333.473 412.5 333.473Z" fill="#0064AB"/>
<path d="M420.98 324.205C421.917 323.421 422.599 322.361 422.935 321.167C423.19 319.959 422.69 318.514 421.572 318.072C420.317 317.579 418.975 318.472 417.954 319.376C416.934 320.279 415.775 321.315 414.443 321.125C415.834 319.824 416.461 317.869 416.097 315.971C416.039 315.584 415.88 315.221 415.638 314.92C414.938 314.152 413.678 314.484 412.841 315.088C410.188 317.011 409.448 320.721 409.432 324.063C409.167 322.859 409.392 321.604 409.387 320.384C409.381 319.165 409.05 317.757 408.034 317.116C407.411 316.758 406.707 316.577 405.993 316.591C404.799 316.549 403.467 316.669 402.656 317.568C401.635 318.682 401.906 320.558 402.783 321.772C403.661 322.986 405.003 323.768 406.238 324.62C407.226 325.227 408.07 326.055 408.708 327.042C408.78 327.18 408.84 327.324 408.886 327.473H416.367C418.042 326.604 419.594 325.505 420.98 324.205Z" fill="#0064AB"/>
<path fill-rule="evenodd" clip-rule="evenodd" d="M196.396 91.5743C196.962 91.5713 197.485 91.2694 197.774 90.7791C198.063 90.2887 198.076 89.6816 197.808 89.1793L183.422 62.2458C183.141 61.7197 182.596 61.3916 182.004 61.3916C181.411 61.3916 180.866 61.7197 180.585 62.2458L166.192 89.1793C165.924 89.6827 165.937 90.2913 166.228 90.7821C166.519 91.2729 167.044 91.5737 167.611 91.5743H196.396ZM183.684 86.5439H180.316V83.1902H183.684V86.5439ZM180.316 80.675H183.684V73.1294H180.316V80.675Z" fill="#9B9B9B"/>
<path fill-rule="evenodd" clip-rule="evenodd" d="M323.549 96.4424L353.227 98.4696C353.81 98.5064 354.371 98.2435 354.704 97.7768C355.037 97.3101 355.093 96.7079 354.852 96.1902L341.936 68.4253C341.684 67.883 341.145 67.5187 340.534 67.477C339.923 67.4352 339.338 67.7227 339.011 68.2255L322.257 93.9637C321.944 94.4448 321.915 95.0502 322.18 95.5582C322.445 96.0661 322.965 96.4019 323.549 96.4424ZM340.624 93.0899L336.788 92.8279L337.056 89.0805L340.893 89.3426L340.624 93.0899ZM337.217 86.8321L341.054 87.0941L341.59 79.5994L337.754 79.3373L337.217 86.8321Z" fill="#9B9B9B"/>
<path fill-rule="evenodd" clip-rule="evenodd" d="M64.1528 128.443L80.2959 124.123C80.6129 124.036 80.8648 123.78 80.9598 123.448C81.0548 123.116 80.9789 122.756 80.7598 122.5L69.0065 108.793C68.777 108.526 68.4265 108.414 68.0941 108.503C67.7616 108.592 67.5009 108.867 67.4154 109.219L63.0295 127.245C62.9477 127.582 63.0386 127.939 63.2688 128.184C63.499 128.429 63.8347 128.528 64.1528 128.443ZM72.9145 122.951L70.8438 123.505L70.3275 121.283L72.3982 120.728L72.9145 122.951ZM70.1554 120.542L72.2261 119.988L71.1935 115.543L69.1228 116.097L70.1554 120.542Z" fill="#9B9B9B"/>
<path fill-rule="evenodd" clip-rule="evenodd" d="M440.708 129.124L456.851 133.444C457.169 133.527 457.503 133.428 457.733 133.182C457.962 132.937 458.052 132.581 457.97 132.245L453.589 114.219C453.503 113.867 453.242 113.592 452.91 113.503C452.577 113.414 452.227 113.526 451.997 113.793L440.24 127.5C440.021 127.756 439.945 128.117 440.041 128.45C440.137 128.782 440.39 129.038 440.708 129.124ZM450.156 128.505L448.086 127.951L448.602 125.728L450.673 126.282L450.156 128.505ZM448.774 124.987L450.845 125.541L451.877 121.096L449.806 120.542L448.774 124.987Z" fill="#9B9B9B"/>
<path opacity="0.1" d="M16.5 354.526C25.6127 354.526 33 353.265 33 351.709C33 350.153 25.6127 348.891 16.5 348.891C7.3873 348.891 0 350.153 0 351.709C0 353.265 7.3873 354.526 16.5 354.526Z" fill="#0064AB"/>
<path d="M5 338.612C5 338.612 14.3978 338.321 17.2447 336.277C20.0916 334.234 31.7118 331.8 32.4159 335.076C33.1199 338.352 46.5462 351.356 35.9301 351.443C25.3139 351.529 11.2632 349.771 8.43464 348.024C5.60611 346.278 5 338.612 5 338.612Z" fill="#A8A8A8"/>
<path opacity="0.2" d="M36.1209 350.303C25.5002 350.39 11.4434 348.631 8.61372 346.885C6.45774 345.56 5.60025 340.798 5.31237 338.6H5C5 338.6 5.61249 346.272 8.42385 348.012C11.2352 349.752 25.3103 351.517 35.931 351.43C38.9935 351.43 40.0531 350.303 39.998 348.668C39.5692 349.665 38.3994 350.285 36.1209 350.303Z" fill="black"/>
<path opacity="0.1" d="M287.5 353.922C296.613 353.922 304 352.66 304 351.104C304 349.548 296.613 348.287 287.5 348.287C278.387 348.287 271 349.548 271 351.104C271 352.66 278.387 353.922 287.5 353.922Z" fill="#0064AB"/>
<path opacity="0.1" d="M414 351.104C423.389 351.104 431 349.843 431 348.287C431 346.731 423.389 345.469 414 345.469C404.611 345.469 397 346.731 397 348.287C397 349.843 404.611 351.104 414 351.104Z" fill="#0064AB"/>
<path fill-rule="evenodd" clip-rule="evenodd" d="M407.602 427.34C405.397 429.265 402.807 430.42 398.887 430.42C391.677 430.42 386.322 424.855 386.322 417.82V417.75C386.322 410.785 391.572 405.08 399.097 405.08C402.772 405.08 405.257 406.06 407.287 407.565C407.847 407.985 408.337 408.755 408.337 409.7C408.337 411.17 407.147 412.325 405.677 412.325C404.942 412.325 404.452 412.045 404.067 411.8C402.562 410.68 400.987 410.05 399.062 410.05C394.932 410.05 391.957 413.48 391.957 417.68V417.75C391.957 421.95 394.862 425.45 399.062 425.45C401.337 425.45 402.842 424.75 404.382 423.525C404.802 423.175 405.362 422.93 405.992 422.93C407.357 422.93 408.512 424.05 408.512 425.415C408.512 426.255 408.092 426.92 407.602 427.34ZM212.032 427.62C212.032 429.055 210.912 430.21 209.477 430.21C208.217 430.21 207.377 429.475 206.887 428.355L205.242 424.505H194.462L192.747 428.53C192.292 429.58 191.382 430.21 190.262 430.21C188.862 430.21 187.777 429.09 187.777 427.69C187.777 427.305 187.917 426.92 188.092 426.535L196.632 407.25C197.227 405.92 198.312 405.115 199.782 405.115H200.097C201.567 405.115 202.617 405.92 203.212 407.25L211.752 426.535C211.927 426.92 212.032 427.27 212.032 427.62ZM156.157 427.55C156.157 428.915 155.072 430 153.707 430H141.037C139.532 430 138.342 428.81 138.342 427.305V407.985C138.342 406.48 139.532 405.29 141.037 405.29C142.542 405.29 143.732 406.48 143.732 407.985V425.1H153.707C155.072 425.1 156.157 426.185 156.157 427.55ZM114.657 430.21C116.162 430.21 117.352 429.02 117.352 427.515V422.65H121.447C126.942 422.65 131.352 419.71 131.352 414.04V413.97C131.352 408.965 127.817 405.5 121.972 405.5H114.657C113.152 405.5 111.962 406.69 111.962 408.195V427.515C111.962 429.02 113.152 430.21 114.657 430.21ZM121.622 417.855H117.352V410.365H121.517C124.212 410.365 125.892 411.66 125.892 414.075V414.145C125.892 416.245 124.317 417.855 121.622 417.855ZM179.457 430C180.787 430 181.872 428.95 181.872 427.62C181.872 426.29 180.787 425.205 179.457 425.205H168.362V420.06H177.707C179.037 420.06 180.122 419.01 180.122 417.68C180.122 416.35 179.037 415.265 177.707 415.265H168.362V410.295H179.282C180.612 410.295 181.697 409.245 181.697 407.915C181.697 406.585 180.612 405.5 179.282 405.5H165.702C164.197 405.5 163.007 406.69 163.007 408.195V427.305C163.007 428.81 164.197 430 165.702 430H179.457ZM196.457 419.745L199.852 411.66L203.247 419.745H196.457ZM236.802 422.755C236.802 427.62 233.092 430.35 227.807 430.35C224.587 430.35 221.332 429.37 218.602 427.41C218.007 426.99 217.587 426.22 217.587 425.38C217.587 423.98 218.707 422.895 220.107 422.895C220.807 422.895 221.297 423.14 221.647 423.385C223.502 424.75 225.532 425.59 227.912 425.59C230.117 425.59 231.447 424.715 231.447 423.28V423.21C231.447 421.845 230.607 421.145 226.512 420.095C221.577 418.835 218.392 417.47 218.392 412.605V412.535C218.392 408.09 221.962 405.15 226.967 405.15C229.942 405.15 232.532 405.92 234.737 407.32C235.332 407.67 235.927 408.405 235.927 409.455C235.927 410.855 234.807 411.94 233.407 411.94C232.882 411.94 232.462 411.8 232.042 411.555C230.257 410.505 228.577 409.91 226.897 409.91C224.832 409.91 223.747 410.855 223.747 412.045V412.115C223.747 413.725 224.797 414.25 229.032 415.335C234.002 416.63 236.802 418.415 236.802 422.685V422.755ZM260.942 430C262.272 430 263.357 428.95 263.357 427.62C263.357 426.29 262.272 425.205 260.942 425.205H249.847V420.06H259.192C260.522 420.06 261.607 419.01 261.607 417.68C261.607 416.35 260.522 415.265 259.192 415.265H249.847V410.295H260.767C262.097 410.295 263.182 409.245 263.182 407.915C263.182 406.585 262.097 405.5 260.767 405.5H247.187C245.682 405.5 244.492 406.69 244.492 408.195V427.305C244.492 428.81 245.682 430 247.187 430H260.942ZM302.152 422.755C302.152 427.62 298.442 430.35 293.157 430.35C289.937 430.35 286.682 429.37 283.952 427.41C283.357 426.99 282.937 426.22 282.937 425.38C282.937 423.98 284.057 422.895 285.457 422.895C286.157 422.895 286.647 423.14 286.997 423.385C288.852 424.75 290.882 425.59 293.262 425.59C295.467 425.59 296.797 424.715 296.797 423.28V423.21C296.797 421.845 295.957 421.145 291.862 420.095C286.927 418.835 283.742 417.47 283.742 412.605V412.535C283.742 408.09 287.312 405.15 292.317 405.15C295.292 405.15 297.882 405.92 300.087 407.32C300.682 407.67 301.277 408.405 301.277 409.455C301.277 410.855 300.157 411.94 298.757 411.94C298.232 411.94 297.812 411.8 297.392 411.555C295.607 410.505 293.927 409.91 292.247 409.91C290.182 409.91 289.097 410.855 289.097 412.045V412.115C289.097 413.725 290.147 414.25 294.382 415.335C299.352 416.63 302.152 418.415 302.152 422.685V422.755ZM326.292 430C327.622 430 328.707 428.95 328.707 427.62C328.707 426.29 327.622 425.205 326.292 425.205H315.197V420.06H324.542C325.872 420.06 326.957 419.01 326.957 417.68C326.957 416.35 325.872 415.265 324.542 415.265H315.197V410.295H326.117C327.447 410.295 328.532 409.245 328.532 407.915C328.532 406.585 327.447 405.5 326.117 405.5H312.537C311.032 405.5 309.842 406.69 309.842 408.195V427.305C309.842 428.81 311.032 430 312.537 430H326.292ZM354.107 427.55C354.107 428.915 353.022 430 351.657 430H338.987C337.482 430 336.292 428.81 336.292 427.305V407.985C336.292 406.48 337.482 405.29 338.987 405.29C340.492 405.29 341.682 406.48 341.682 407.985V425.1H351.657C353.022 425.1 354.107 426.185 354.107 427.55ZM377.407 430C378.737 430 379.822 428.95 379.822 427.62C379.822 426.29 378.737 425.205 377.407 425.205H366.312V420.06H375.657C376.987 420.06 378.072 419.01 378.072 417.68C378.072 416.35 376.987 415.265 375.657 415.265H366.312V410.295H377.232C378.562 410.295 379.647 409.245 379.647 407.915C379.647 406.585 378.562 405.5 377.232 405.5H363.652C362.147 405.5 360.957 406.69 360.957 408.195V427.305C360.957 428.81 362.147 430 363.652 430H377.407ZM424.637 430.21C426.142 430.21 427.332 429.02 427.332 427.515V410.47H432.512C433.877 410.47 434.997 409.35 434.997 407.985C434.997 406.62 433.877 405.5 432.512 405.5H416.762C415.397 405.5 414.277 406.62 414.277 407.985C414.277 409.35 415.397 410.47 416.762 410.47H421.942V427.515C421.942 429.02 423.132 430.21 424.637 430.21ZM206.7 462.62C206.7 464.055 205.58 465.21 204.145 465.21C202.885 465.21 202.045 464.475 201.555 463.355L199.91 459.505H189.13L187.415 463.53C186.96 464.58 186.05 465.21 184.93 465.21C183.53 465.21 182.445 464.09 182.445 462.69C182.445 462.305 182.585 461.92 182.76 461.535L191.3 442.25C191.895 440.92 192.98 440.115 194.45 440.115H194.765C196.235 440.115 197.285 440.92 197.88 442.25L206.42 461.535C206.595 461.92 206.7 462.27 206.7 462.62ZM191.125 454.745L194.52 446.66L197.915 454.745H191.125ZM232.825 462.515C232.825 464.02 231.635 465.21 230.13 465.21C228.625 465.21 227.435 464.02 227.435 462.515V443.195C227.435 441.69 228.625 440.5 230.13 440.5H243.85C245.215 440.5 246.3 441.585 246.3 442.95C246.3 444.315 245.215 445.4 243.85 445.4H232.825V450.615H242.275C243.64 450.615 244.725 451.7 244.725 453.065C244.725 454.43 243.64 455.515 242.275 455.515H232.825V462.515ZM256.335 465.21C257.84 465.21 259.03 464.02 259.03 462.515V442.985C259.03 441.48 257.84 440.29 256.335 440.29C254.83 440.29 253.64 441.48 253.64 442.985V462.515C253.64 464.02 254.83 465.21 256.335 465.21ZM285.97 462.55C285.97 463.915 284.885 465 283.52 465H270.85C269.345 465 268.155 463.81 268.155 462.305V442.985C268.155 441.48 269.345 440.29 270.85 440.29C272.355 440.29 273.545 441.48 273.545 442.985V460.1H283.52C284.885 460.1 285.97 461.185 285.97 462.55ZM297.72 465.21C299.225 465.21 300.415 464.02 300.415 462.515V445.47H305.595C306.96 445.47 308.08 444.35 308.08 442.985C308.08 441.62 306.96 440.5 305.595 440.5H289.845C288.48 440.5 287.36 441.62 287.36 442.985C287.36 444.35 288.48 445.47 289.845 445.47H295.025V462.515C295.025 464.02 296.215 465.21 297.72 465.21ZM333.865 462.62C333.865 463.95 332.78 465 331.45 465H317.695C316.19 465 315 463.81 315 462.305V443.195C315 441.69 316.19 440.5 317.695 440.5H331.275C332.605 440.5 333.69 441.585 333.69 442.915C333.69 444.245 332.605 445.295 331.275 445.295H320.355V450.265H329.7C331.03 450.265 332.115 451.35 332.115 452.68C332.115 454.01 331.03 455.06 329.7 455.06H320.355V460.205H331.45C332.78 460.205 333.865 461.29 333.865 462.62ZM359.055 465.21C360.35 465.21 361.61 464.23 361.61 462.725C361.61 461.885 361.26 461.325 360.735 460.66L356.99 456.11C359.965 454.885 361.89 452.505 361.89 448.655V448.585C361.89 446.275 361.155 444.35 359.79 442.985C358.18 441.375 355.765 440.5 352.65 440.5H344.145C342.64 440.5 341.45 441.69 341.45 443.195V462.515C341.45 464.02 342.64 465.21 344.145 465.21C345.65 465.21 346.84 464.02 346.84 462.515V457.16H351.145L356.395 463.81C357.025 464.615 357.83 465.21 359.055 465.21ZM346.84 452.4H352.3C354.925 452.4 356.43 451 356.43 448.935V448.865C356.43 446.555 354.82 445.365 352.195 445.365H346.84V452.4Z" fill="#5A5A5A"/>
<path fill-rule="evenodd" clip-rule="evenodd" d="M427.169 197.56H421.161V188.44H427.169V197.56Z" fill="#5C575F"/>
<path fill-rule="evenodd" clip-rule="evenodd" d="M409.089 197.56H415.153V181.786C415.153 179.358 414.194 177.029 412.488 175.313L410.931 173.746C410.261 173.071 409.174 173.071 408.503 173.746L406.644 175.617C405.973 176.291 405.973 177.385 406.644 178.059L408.201 179.626C408.77 180.198 409.089 180.975 409.089 181.784V197.56H409.089Z" fill="#6D6970"/>
<path fill-rule="evenodd" clip-rule="evenodd" d="M364.206 226.44L376.852 209.317L374.478 207.44L361.832 224.562L364.206 226.44Z" fill="#9E9DA0"/>
<path fill-rule="evenodd" clip-rule="evenodd" d="M439.936 158.04H491.004V212.76H436.932V194.52L439.936 158.04Z" fill="#6D6970"/>
<path fill-rule="evenodd" clip-rule="evenodd" d="M452.455 209.72H445.311C443.87 209.72 442.63 208.7 442.345 207.281L440.235 196.763C439.953 195.359 439.87 193.922 439.988 192.495L442.11 166.908C442.241 165.332 443.552 164.12 445.125 164.12H454.935C456.606 164.12 457.96 165.481 457.96 167.16V193.015C457.96 194.015 457.862 195.014 457.667 195.996L455.422 207.276C455.138 208.697 453.897 209.72 452.455 209.72Z" fill="#5C575F"/>
<path fill-rule="evenodd" clip-rule="evenodd" d="M397.129 197.56L436.181 194.52L439.185 212.76H397.129V197.56Z" fill="#858389"/>
<path fill-rule="evenodd" clip-rule="evenodd" d="M466.221 191.48H481.241C482.9 191.48 484.245 190.081 484.245 188.355V166.484C484.245 164.759 482.9 163.36 481.241 163.36H466.221C464.562 163.36 463.217 164.759 463.217 166.484V188.355C463.217 190.081 464.562 191.48 466.221 191.48Z" fill="#5C575F"/>
<mask id="mask0" mask-type="alpha" maskUnits="userSpaceOnUse" x="376" y="158" width="127" height="92">
<path fill-rule="evenodd" clip-rule="evenodd" d="M503 158.1H376.183V250H503V158.1Z" fill="white"/>
</mask>
<g mask="url(#mask0)">
<path fill-rule="evenodd" clip-rule="evenodd" d="M478.861 197.923H469.801V158.1H478.861V197.923Z" fill="#0881D8"/>
<path fill-rule="evenodd" clip-rule="evenodd" d="M499.999 194.86H463.299C461.823 194.86 460.563 195.942 460.32 197.419L458.141 210.68C457.898 212.157 456.638 213.24 455.162 213.24H405.54C404.24 213.24 403.085 212.396 402.675 211.145L398.012 196.954C397.6 195.703 396.447 194.86 395.147 194.86H376.182V240.81H469.8L469.8 213.24H499.999C501.667 213.24 503.019 211.869 503.019 210.177V197.923C503.019 196.232 501.667 194.86 499.999 194.86Z" fill="#0064AB"/>
<path fill-rule="evenodd" clip-rule="evenodd" d="M403.361 250H487.92C496.259 250 503.019 243.143 503.019 234.683C503.019 226.224 496.259 219.367 487.92 219.367H403.361C395.022 219.367 388.262 226.224 388.262 234.683C388.262 243.143 395.022 250 403.361 250Z" fill="#48454D"/>
</g>
<path fill-rule="evenodd" clip-rule="evenodd" d="M488 243.92H403.137V228.72H488V243.92Z" fill="#0064AB"/>
<path fill-rule="evenodd" clip-rule="evenodd" d="M488 225.68C483.023 225.68 478.988 229.763 478.988 234.8C478.988 239.837 483.023 243.92 488 243.92C492.978 243.92 497.012 239.837 497.012 234.8C497.012 229.763 492.978 225.68 488 225.68Z" fill="#0881D8"/>
<path fill-rule="evenodd" clip-rule="evenodd" d="M403.137 225.68C398.16 225.68 394.125 229.763 394.125 234.8C394.125 239.837 398.16 243.92 403.137 243.92C408.114 243.92 412.149 239.837 412.149 234.8C412.149 229.763 408.114 225.68 403.137 225.68Z" fill="#0881D8"/>
<path fill-rule="evenodd" clip-rule="evenodd" d="M358.49 222.64L356.574 228.491L401.972 243.92L403.888 238.069L358.49 222.64Z" fill="#0881D8"/>
<path fill-rule="evenodd" clip-rule="evenodd" d="M352.833 243.92H431.661C432.498 243.92 433.177 243.24 433.177 242.4V239.36C433.177 238.52 432.498 237.84 431.661 237.84H352.833C351.996 237.84 351.317 238.52 351.317 239.36V242.4C351.317 243.24 351.996 243.92 352.833 243.92Z" fill="#858389"/>
<path fill-rule="evenodd" clip-rule="evenodd" d="M355.073 220.402C355.073 219.54 354.381 218.84 353.529 218.84H350.689C349.581 218.84 348.558 219.441 348.009 220.414L336.548 240.711H304.088C302.383 240.711 301 242.11 301 243.835C301 245.561 302.383 246.96 304.088 246.96H348.898C352.308 246.96 355.073 244.162 355.073 240.711V220.402Z" fill="#9E9DA0"/>
<rect width="32.2932" height="32.68" transform="matrix(-1 0 0 1 337.048 207.789)" fill="#F6F6F6"/>
<path fill-rule="evenodd" clip-rule="evenodd" d="M323.315 217.669H317.738V230.589H323.315V217.669ZM330.29 221.976H324.708V230.589H330.29V221.976ZM310.763 224.844H316.34V230.589H310.763V224.844Z" fill="#F9CB5F"/>
<path fill-rule="evenodd" clip-rule="evenodd" d="M360.33 237.08H354.322V217.32C354.322 216.48 354.994 215.8 355.824 215.8H358.828C359.657 215.8 360.33 216.48 360.33 217.32V237.08Z" fill="#0064AB"/>
<path fill-rule="evenodd" clip-rule="evenodd" d="M436.181 213.52H497.012L494.811 217.92C494.296 218.949 493.243 219.6 492.091 219.6H436.181V213.52Z" fill="#0881D8"/>
<path fill-rule="evenodd" clip-rule="evenodd" d="M439.223 161.08H493.971C495.65 161.08 497.012 159.719 497.012 158.04C497.012 156.361 495.65 155 493.971 155H439.223C437.543 155 436.181 156.361 436.181 158.04C436.181 159.719 437.543 161.08 439.223 161.08Z" fill="#0064AB"/>
<path fill-rule="evenodd" clip-rule="evenodd" d="M372.974 217.479L398.322 183.685C398.826 183.013 398.7 182.052 398.042 181.538L395.602 179.635C394.943 179.121 394 179.249 393.496 179.921L368.149 213.715C367.645 214.387 367.77 215.348 368.429 215.861L370.869 217.765C371.527 218.279 372.47 218.151 372.974 217.479Z" fill="#0881D8"/>
<path fill-rule="evenodd" clip-rule="evenodd" d="M419.659 191.48H428.671C429.501 191.48 430.173 190.8 430.173 189.96V186.92C430.173 186.08 429.501 185.4 428.671 185.4H419.659C418.829 185.4 418.157 186.08 418.157 186.92V189.96C418.157 190.8 418.829 191.48 419.659 191.48Z" fill="#6D6970"/>
<path fill-rule="evenodd" clip-rule="evenodd" d="M226.675 257.203C225.677 257.203 224.679 256.805 223.917 256.009C222.394 254.417 222.394 251.839 223.917 250.247L226.675 247.367V212.384C226.675 207.891 230.176 204.236 234.476 204.236L242.951 204.238C251.182 204.24 257.878 211.237 257.878 219.836C257.878 224.001 256.324 227.919 253.505 230.863L229.432 256.009C228.671 256.805 227.673 257.203 226.675 257.203Z" fill="#0064AB"/>
<path fill-rule="evenodd" clip-rule="evenodd" d="M207.162 140.31L209.492 143.564L147.307 192.364L144.977 189.111L207.162 140.31Z" fill="#C4C3C2"/>
<path fill-rule="evenodd" clip-rule="evenodd" d="M137.355 266.335L122.207 263.307L132.774 203.231C133.816 197.307 137.248 192.17 142.158 189.182L203.212 152.036C205.352 150.733 208.045 151.119 209.788 152.976C212.24 155.59 211.819 159.946 208.918 161.971L151.008 202.415C149.253 203.639 148.044 205.574 147.657 207.772L137.355 266.335Z" fill="#0064AB"/>
<path fill-rule="evenodd" clip-rule="evenodd" d="M115.566 302.864H145.926V286.426H115.566V302.864Z" fill="#5C575F"/>
<path fill-rule="evenodd" clip-rule="evenodd" d="M96.5911 258.116H42.5125V254.006C42.5125 251.737 44.2422 249.897 46.3754 249.897H92.7286C94.8618 249.897 96.5911 251.737 96.5911 254.006V258.116Z" fill="#6D6970"/>
<path fill-rule="evenodd" clip-rule="evenodd" d="M188.348 333H57.0146C48.4814 333 41.5637 325.436 41.5637 316.105C41.5637 306.775 48.4814 299.211 57.0146 299.211H188.348C196.882 299.211 203.8 306.775 203.8 316.105C203.8 325.436 196.882 333 188.348 333Z" fill="#48454D"/>
<path fill-rule="evenodd" clip-rule="evenodd" d="M56.7437 323.868H188.62V307.43H56.7437V323.868Z" fill="#5C575F"/>
<path fill-rule="evenodd" clip-rule="evenodd" d="M57.6923 307.43C61.8842 307.43 65.2825 311.109 65.2825 315.649C65.2825 320.188 61.8842 323.868 57.6923 323.868C53.5008 323.868 50.1025 320.188 50.1025 315.649C50.1025 311.109 53.5008 307.43 57.6923 307.43Z" fill="#6D6970"/>
<mask id="mask1" mask-type="alpha" maskUnits="userSpaceOnUse" x="34" y="220" width="163" height="104">
<path fill-rule="evenodd" clip-rule="evenodd" d="M34 220.068H196.104V323.56H34V220.068Z" fill="white"/>
</mask>
<g mask="url(#mask1)">
<path fill-rule="evenodd" clip-rule="evenodd" d="M188.384 307.001C192.648 307.001 196.104 310.708 196.104 315.281C196.104 319.854 192.648 323.56 188.384 323.56C184.12 323.56 180.663 319.854 180.663 315.281C180.663 310.708 184.12 307.001 188.384 307.001Z" fill="#6D6970"/>
<path fill-rule="evenodd" clip-rule="evenodd" d="M151.058 220.068H107.318C105.187 220.068 103.459 221.922 103.459 224.208V257.325H37.8343C35.7025 257.325 33.9739 259.179 33.9739 261.465V286.303C33.9739 288.59 35.7025 290.443 37.8343 290.443H161.362C163.494 290.443 165.222 288.59 165.222 286.303V274.938C165.222 268.73 164.701 262.534 163.665 256.426L158.654 226.867C157.987 222.93 154.789 220.068 151.058 220.068Z" fill="#0064AB"/>
<path fill-rule="evenodd" clip-rule="evenodd" d="M161.362 290.443H37.8343C35.7025 290.443 33.9739 288.59 33.9739 286.303V278.024H165.222V286.303C165.222 288.59 163.494 290.443 161.362 290.443Z" fill="#0881D8"/>
</g>
<path fill-rule="evenodd" clip-rule="evenodd" d="M164.502 256.766L159.459 227.423C158.787 223.514 155.57 220.674 151.814 220.674H115.566V246.741C115.566 251.1 117.203 255.281 120.118 258.364L126.554 265.173C129.469 268.256 133.421 269.988 137.542 269.988H165.85C165.639 265.555 165.253 261.135 164.502 256.766Z" fill="#6D6970"/>
<path fill-rule="evenodd" clip-rule="evenodd" d="M124.105 224.327H120.31C119.262 224.327 118.412 225.254 118.412 226.396V246.44C118.412 249.733 119.612 252.891 121.747 255.219L123.057 256.648C124.144 257.833 126.002 256.994 126.002 255.317V226.396C126.002 225.254 125.153 224.327 124.105 224.327Z" fill="#5C575F"/>
<path fill-rule="evenodd" clip-rule="evenodd" d="M159.365 256.913L154.35 227.507C154.016 225.548 152.416 224.125 150.549 224.125H135.75C134.684 224.125 133.819 225.047 133.819 226.184V263.249C133.819 264.387 134.684 265.309 135.75 265.309H158.251C159.393 265.309 160.299 264.242 160.179 263.033C159.965 260.868 159.697 258.855 159.365 256.913Z" fill="#5C575F"/>
<path fill-rule="evenodd" clip-rule="evenodd" d="M247.647 224.624L234.261 238.893V211.769L242.656 211.772C246.549 211.774 249.714 215.15 249.714 219.301C249.714 221.312 248.979 223.202 247.647 224.624ZM242.656 203.536L240.269 203.535C240.263 203.521 240.259 203.506 240.253 203.491L214.293 141.222C212.615 137.197 207.942 135.752 204.505 138.196C201.659 140.218 200.711 144.21 202.311 147.433L230.649 204.494C228.205 205.879 226.535 208.619 226.535 211.77V247.131L223.804 250.042C222.295 251.651 222.295 254.257 223.804 255.867C224.559 256.671 225.547 257.073 226.535 257.073C227.524 257.073 228.513 256.671 229.267 255.867L253.11 230.448C255.901 227.472 257.441 223.512 257.441 219.302C257.441 210.61 250.808 203.537 242.656 203.536Z" fill="#0881D8"/>
</svg>
