<?xml version="1.0" encoding="utf-8"?>
<!-- Generator: Adobe Illustrator 24.1.2, SVG Export Plug-In . SVG Version: 6.00 Build 0)  -->
<svg version="1.1" id="Layer_1" xmlns="http://www.w3.org/2000/svg" xmlns:xlink="http://www.w3.org/1999/xlink" x="0px" y="0px"
	 viewBox="0 0 14 11" style="enable-background:new 0 0 14 11;" xml:space="preserve">
<style type="text/css">
	.st0{fill:#5A68AD;}
</style>
<g id="Symbols_1_">
	<g>
		<path class="st0" d="M1.4,9.4L1.4,9.4c0,0,0.1,0.1,0.6,0.1h11V6H1.4V9.4z"/>
		<path class="st0" d="M13.4,1.2h-12C1,1.3,1,1.4,1,1.6v8.2h12.4V1.2z"/>
		<path d="M1.7,0.5c-1,0.1-1.3,0.7-1.3,1.1v7.8c0,1.1,1.2,1.1,1.5,1.1H14v-10L1.7,0.5z M1.4,1.7c0-0.1,0-0.1,0.4-0.2h11.3V5H1.4V1.7
			z M13,9.5H1.9c-0.5,0-0.6-0.1-0.6-0.1l0,0V5.9H13V9.5z"/>
	</g>
</g>
</svg>
