<?xml version="1.0" encoding="utf-8"?>
<!-- Generator: Adobe Illustrator 24.1.2, SVG Export Plug-In . SVG Version: 6.00 Build 0)  -->
<svg version="1.1" id="Layer_1" xmlns="http://www.w3.org/2000/svg" xmlns:xlink="http://www.w3.org/1999/xlink" x="0px" y="0px"
	 viewBox="0 0 36 36" style="enable-background:new 0 0 36 36;" xml:space="preserve">
<style type="text/css">
	.st0{fill:#407C00;stroke:#000000;}
	.st1{fill:#FFFFFF;}
</style>
<g id="icon_x2F_port-standard-copy" transform="translate(0.000000, 0.000000)">
	<g id="port">
		<circle id="Oval" class="st0" cx="18" cy="18" r="17.4"/>
	</g>
	<g id="big-anchor" transform="translate(7.875000, 6.750000)">
		<path id="XMLID_3_" class="st1" d="M20.2,16.9l-0.8-3.8c0-0.2-0.1-0.3-0.3-0.4c-0.2-0.1-0.3-0.1-0.5,0l-3.5,2
			C15,14.9,15,15.1,15,15.3c0.1,0.2,0.3,0.4,0.5,0.3l1.4-0.1c-1.3,1.7-3.2,2.3-5.5,2.5V7.3h1.1c0.2,0.1,0.4,0.2,0.6,0.2
			c0.6,0,1.1-0.5,1.1-1c0-0.6-0.5-1-1.1-1c-0.2,0-0.5,0.1-0.6,0.2h-1.1V4.1c0.6-0.4,1.1-1.1,1.1-1.9C12.5,1,11.4,0,10.1,0
			S7.8,1,7.8,2.2c0,0.8,0.4,1.5,1.1,1.9v1.5H7.7C7.5,5.5,7.3,5.4,7.1,5.4C6.5,5.4,6,5.9,6,6.4c0,0.6,0.5,1,1.1,1
			c0.2,0,0.5-0.1,0.6-0.2h1.1v10.9c-2.2-0.2-4.2-0.9-5.5-2.5l1.4,0.1c0.2,0,0.5-0.1,0.5-0.3c0.1-0.2,0-0.4-0.2-0.6l-3.5-2
			c-0.1-0.1-0.3-0.1-0.5,0c-0.2,0.1-0.3,0.2-0.3,0.4L0,16.9c0,0.2,0.1,0.4,0.3,0.5c0.2,0.1,0.5,0,0.6-0.1l0.8-1
			c1.6,2.4,4.1,4.5,6.9,5l1.1,1c0.2,0.2,0.5,0.2,0.7,0l1.1-1c2.9-0.5,5.4-2.6,6.9-5l0.8,1c0.1,0.2,0.4,0.2,0.6,0.1
			C20.2,17.4,20.3,17.1,20.2,16.9z M10.7,1.1c0.3,0,0.6,0.3,0.6,0.6S11,2.2,10.7,2.2c-0.3,0-0.6-0.3-0.6-0.6
			C10.1,1.4,10.4,1.1,10.7,1.1z"/>
	</g>
</g>
</svg>
