<?xml version="1.0" encoding="utf-8"?>
<!-- Generator: Adobe Illustrator 24.1.2, SVG Export Plug-In . SVG Version: 6.00 Build 0)  -->
<svg version="1.1" id="Layer_1" xmlns="http://www.w3.org/2000/svg" xmlns:xlink="http://www.w3.org/1999/xlink" x="0px" y="0px"
	 viewBox="0 0 19 11" style="enable-background:new 0 0 19 11;" xml:space="preserve">
<style type="text/css">
	.st0{fill:#F6C042;}
</style>
<g id="Clipped">
	<g id="Rectangle">
	</g>
	<g id="Path_1_">
	</g>
</g>
<g>
	<polygon class="st0" points="1.1,1.6 1.1,5 16.3,5 11.3,1.6 	"/>
	<polygon class="st0" points="1.1,9.4 11.3,9.4 16.3,6 1.1,6 	"/>
	<path d="M18.3,5l-6.6-4.5l-0.1-0.1h-0.2H1.1C0.5,0.5,0,1,0,1.6v7.8c0,0.6,0.5,1.1,1.1,1.1h10.4h0.2l0.1-0.1L18.3,6L19,5.5L18.3,5z
		 M11.3,9.4H1.1V6h15.2L11.3,9.4z M1.1,5V1.6h10.2l5,3.4H1.1z"/>
</g>
</svg>
